<?xml version="1.0" encoding="UTF-8" standalone="no"?>
<!-- Created with Inkscape (http://www.inkscape.org/) -->

<svg
   xmlns:dc="http://purl.org/dc/elements/1.1/"
   xmlns:cc="http://creativecommons.org/ns#"
   xmlns:rdf="http://www.w3.org/1999/02/22-rdf-syntax-ns#"
   xmlns:svg="http://www.w3.org/2000/svg"
   xmlns="http://www.w3.org/2000/svg"
   xmlns:sodipodi="http://sodipodi.sourceforge.net/DTD/sodipodi-0.dtd"
   xmlns:inkscape="http://www.inkscape.org/namespaces/inkscape"
   width="210mm"
   height="297mm"
   viewBox="0 0 210 297"
   version="1.1"
   id="svg8"
   inkscape:version="0.92.3 (2405546, 2018-03-11)"
   sodipodi:docname="fxtract.svg">
  <defs
     id="defs2" />
  <sodipodi:namedview
     id="base"
     pagecolor="#ffffff"
     bordercolor="#666666"
     borderopacity="1.0"
     inkscape:pageopacity="0.0"
     inkscape:pageshadow="2"
     inkscape:zoom="6.5808664"
     inkscape:cx="115.17271"
     inkscape:cy="1041.3799"
     inkscape:document-units="mm"
     inkscape:current-layer="g68"
     showgrid="false"
     inkscape:window-width="1920"
     inkscape:window-height="1016"
     inkscape:window-x="0"
     inkscape:window-y="27"
     inkscape:window-maximized="1" />
  <metadata
     id="metadata5">
    <rdf:RDF>
      <cc:Work
         rdf:about="">
        <dc:format>image/svg+xml</dc:format>
        <dc:type
           rdf:resource="http://purl.org/dc/dcmitype/StillImage" />
        <dc:title />
      </cc:Work>
    </rdf:RDF>
  </metadata>
  <g
     inkscape:label="Layer 1"
     inkscape:groupmode="layer"
     id="layer1">
    <text
       xml:space="preserve"
       style="font-style:normal;font-variant:normal;font-weight:bold;font-stretch:normal;font-size:10.58333302px;line-height:1.25;font-family:'Artifakt Element';-inkscape-font-specification:'Artifakt Element Bold';letter-spacing:0px;word-spacing:0px;fill:#000000;fill-opacity:1;stroke:none;stroke-width:0.26458332"
       x="40.443455"
       y="67.568451"
       id="text12"><tspan
         sodipodi:role="line"
         id="tspan10"
         x="40.443455"
         y="67.568451"
         style="font-size:4.58611107px;stroke-width:0.26458332;letter-spacing:0.52916667px"
         dx="0">FXTRACT</tspan></text>
    <rect
       id="rect17"
       width="1.9150351"
       height="0.087982088"
       x="68.042442"
       y="36.031765"
       style="fill:#4caf50;fill-opacity:1;stroke-width:0.14136797"
       transform="rotate(30)" />
    <text
       id="text25"
       y="59.158482"
       x="40.443455"
       style="font-style:normal;font-variant:normal;font-weight:bold;font-stretch:normal;font-size:10.58333302px;line-height:1.25;font-family:'Artifakt Element';-inkscape-font-specification:'Artifakt Element Bold';letter-spacing:0px;word-spacing:0px;fill:#000000;fill-opacity:1;stroke:none;stroke-width:0.26458332"
       xml:space="preserve"><tspan
         dx="0"
         style="font-size:4.58611107px;letter-spacing:0.5291667px;stroke-width:0.26458332"
         y="59.158482"
         x="40.443455"
         id="tspan23"
         sodipodi:role="line">FXTRACT</tspan></text>
    <text
       id="text25-3"
       y="52.468872"
       x="40.671734"
       style="font-style:normal;font-variant:normal;font-weight:bold;font-stretch:normal;font-size:10.58333302px;line-height:1.25;font-family:'Artifakt Element';-inkscape-font-specification:'Artifakt Element Bold';letter-spacing:0px;word-spacing:0px;fill:#000000;fill-opacity:1;stroke:none;stroke-width:0.26458332"
       xml:space="preserve"><tspan
         dx="0"
         style="font-style:normal;font-variant:normal;font-weight:normal;font-stretch:normal;font-size:4.58611107px;font-family:'Artifakt Element';-inkscape-font-specification:'Artifakt Element';letter-spacing:0.52916676px;stroke-width:0.26458332"
         y="52.468872"
         x="40.671734"
         id="tspan23-6"
         sodipodi:role="line">FXTRACT</tspan></text>
    <text
       id="text25-3-7"
       y="51.966652"
       x="69.042633"
       style="font-style:normal;font-variant:normal;font-weight:bold;font-stretch:normal;font-size:10.58333302px;line-height:1.25;font-family:'Artifakt Element';-inkscape-font-specification:'Artifakt Element Bold';letter-spacing:0px;word-spacing:0px;fill:#000000;fill-opacity:1;stroke:none;stroke-width:0.26458332"
       xml:space="preserve"><tspan
         dx="0"
         style="font-style:normal;font-variant:normal;font-weight:bold;font-stretch:normal;font-size:4.58611107px;font-family:Overpass;-inkscape-font-specification:'Overpass Bold';letter-spacing:0.52916682px;stroke-width:0.26458332"
         y="51.966652"
         x="69.042633"
         id="tspan23-6-5"
         sodipodi:role="line">FXTRACT</tspan></text>
    <text
       xml:space="preserve"
       style="font-style:normal;font-weight:normal;font-size:10.58333302px;line-height:1.25;font-family:sans-serif;letter-spacing:0px;word-spacing:0px;fill:#000000;fill-opacity:1;stroke:none;stroke-width:0.26458332"
       x="81.831841"
       y="54.244789"
       id="text65"><tspan
         sodipodi:role="line"
         id="tspan63"
         x="81.831841"
         y="63.608559"
         style="stroke-width:0.26458332" /></text>
    <text
       id="text25-3-7-9"
       y="60.149414"
       x="69.114052"
       style="font-style:normal;font-variant:normal;font-weight:bold;font-stretch:normal;font-size:10.58333302px;line-height:1.25;font-family:'Artifakt Element';-inkscape-font-specification:'Artifakt Element Bold';letter-spacing:0px;word-spacing:0px;fill:#000000;fill-opacity:1;stroke:none;stroke-width:0.26458332"
       xml:space="preserve"><tspan
         dx="0"
         style="font-style:normal;font-variant:normal;font-weight:800;font-stretch:normal;font-size:4.58611107px;font-family:Overpass;-inkscape-font-specification:'Overpass Ultra-Bold';letter-spacing:0.52916682px;stroke-width:0.26458332"
         y="60.149414"
         x="69.114052"
         id="tspan23-6-5-6"
         sodipodi:role="line">FXTRACT</tspan></text>
    <text
       xml:space="preserve"
       style="font-style:normal;font-variant:normal;font-weight:bold;font-stretch:normal;font-size:10.58333302px;line-height:1.25;font-family:'Artifakt Element';-inkscape-font-specification:'Artifakt Element Bold';letter-spacing:0px;word-spacing:0px;fill:#4caf50;fill-opacity:1;stroke:none;stroke-width:0.26458332;"
       x="40.443455"
       y="74.324776"
       id="text87"><tspan
         sodipodi:role="line"
         id="tspan85"
         x="40.443455"
         y="74.324776"
         style="font-size:4.58611107px;letter-spacing:0.5291667px;stroke-width:0.26458332;fill:#4caf50;fill-opacity:1;"
         dx="0">FXTRACT</tspan></text>
    <text
       xml:space="preserve"
       style="font-style:normal;font-variant:normal;font-weight:bold;font-stretch:normal;font-size:10.58333302px;line-height:1.25;font-family:'Artifakt Element';-inkscape-font-specification:'Artifakt Element Bold';letter-spacing:0px;word-spacing:0px;fill:#000000;fill-opacity:1;stroke:none;stroke-width:0.26458332"
       x="40.671734"
       y="45.186012"
       id="text4599"><tspan
         sodipodi:role="line"
         id="tspan4597"
         x="40.671734"
         y="45.186012"
         style="font-style:normal;font-variant:normal;font-weight:normal;font-stretch:normal;font-size:4.58611107px;font-family:'Artifakt Element';-inkscape-font-specification:'Artifakt Element';letter-spacing:0.52916676px;stroke-width:0.26458332"
         dx="0"><tspan
   style="font-style:normal;font-variant:normal;font-weight:bold;font-stretch:normal;font-family:'Artifakt Element';-inkscape-font-specification:'Artifakt Element Bold'"
   id="tspan4601">FXT</tspan>RACT</tspan></text>
    <text
       xml:space="preserve"
       style="font-style:normal;font-variant:normal;font-weight:bold;font-stretch:normal;font-size:10.58333302px;line-height:1.25;font-family:'Artifakt Element';-inkscape-font-specification:'Artifakt Element Bold';letter-spacing:0px;word-spacing:0px;fill:#000000;fill-opacity:1;stroke:none;stroke-width:0.26458332"
       x="70.215416"
       y="43.880592"
       id="text4605"><tspan
         sodipodi:role="line"
         id="tspan4603"
         x="70.215416"
         y="43.880592"
         style="font-style:normal;font-variant:normal;font-weight:normal;font-stretch:normal;font-size:4.58611107px;font-family:Overpass;-inkscape-font-specification:Overpass;letter-spacing:0.52916676px;stroke-width:0.26458332"
         dx="0">FXTRACT</tspan></text>
    <text
       id="text4609"
       y="74.317451"
       x="69.871887"
       style="font-style:normal;font-variant:normal;font-weight:bold;font-stretch:normal;font-size:10.58333302px;line-height:1.25;font-family:'Artifakt Element';-inkscape-font-specification:'Artifakt Element Bold';letter-spacing:0px;word-spacing:0px;fill:#4caf50;fill-opacity:1;stroke:none;stroke-width:0.26458332;"
       xml:space="preserve"
       inkscape:export-xdpi="96"
       inkscape:export-ydpi="96"><tspan
         dx="0"
         style="font-style:normal;font-variant:normal;font-weight:300;font-stretch:normal;font-size:4.58611107px;font-family:'Open Sans';-inkscape-font-specification:'Open Sans Light';letter-spacing:0.52916676px;stroke-width:0.26458332;fill:#4caf50;fill-opacity:1;"
         y="74.317451"
         x="69.871887"
         id="tspan4607"
         sodipodi:role="line">FXTRACT</tspan></text>
    <text
       xml:space="preserve"
       style="font-style:normal;font-variant:normal;font-weight:bold;font-stretch:normal;font-size:10.58333302px;line-height:1.25;font-family:'Artifakt Element';-inkscape-font-specification:'Artifakt Element Bold';letter-spacing:0px;word-spacing:0px;fill:#000000;fill-opacity:1;stroke:none;stroke-width:0.26458332"
       x="94.193893"
       y="74.317451"
       id="text4613"><tspan
         sodipodi:role="line"
         id="tspan4611"
         x="94.193893"
         y="74.317451"
         style="font-style:normal;font-variant:normal;font-weight:300;font-stretch:normal;font-size:4.58611107px;font-family:'Open Sans';-inkscape-font-specification:'Open Sans Light';letter-spacing:0.52916676px;stroke-width:0.26458332"
         dx="0">FXTRACT</tspan></text>
    <text
       id="text4754"
       y="80.989281"
       x="40.443455"
       style="font-style:normal;font-variant:normal;font-weight:bold;font-stretch:normal;font-size:10.58333302px;line-height:1.25;font-family:'Artifakt Element';-inkscape-font-specification:'Artifakt Element Bold';letter-spacing:0px;word-spacing:0px;fill:#4caf50;fill-opacity:1;stroke:none;stroke-width:0.26458332"
       xml:space="preserve"><tspan
         dx="0"
         style="font-size:4.58611107px;letter-spacing:0.5291667px;fill:#4caf50;fill-opacity:1;stroke-width:0.26458332;-inkscape-font-specification:'Open Sans Medium';font-family:'Open Sans';font-weight:500;font-style:normal;font-stretch:normal;font-variant:normal"
         y="80.989281"
         x="40.443455"
         id="tspan4752"
         sodipodi:role="line">FXTRACT</tspan></text>
    <text
       xml:space="preserve"
       style="font-style:normal;font-variant:normal;font-weight:bold;font-stretch:normal;font-size:10.58333302px;line-height:1.25;font-family:'Artifakt Element';-inkscape-font-specification:'Artifakt Element Bold';letter-spacing:0px;word-spacing:0px;fill:#000000;fill-opacity:1;stroke:none;stroke-width:0.26458332;"
       x="67.307594"
       y="80.989281"
       id="text4758"><tspan
         sodipodi:role="line"
         id="tspan4756"
         x="67.307594"
         y="80.989281"
         style="font-style:normal;font-variant:normal;font-weight:500;font-stretch:normal;font-size:4.58611107px;font-family:'Open Sans';-inkscape-font-specification:'Open Sans Medium';letter-spacing:0.5291667px;fill:#000000;fill-opacity:1;stroke-width:0.26458332;"
         dx="0">FXTRACT</tspan></text>
    <g
       aria-label="FXTRACT"
       style="font-style:normal;font-variant:normal;font-weight:bold;font-stretch:normal;font-size:10.58333302px;line-height:1.25;font-family:'Artifakt Element';-inkscape-font-specification:'Artifakt Element Bold';letter-spacing:0px;word-spacing:0px;fill:#000000;fill-opacity:1;stroke:none;stroke-width:0.26458332"
       id="text4852">
      <path
         d="M 18.894847,42.420587 V 41.975735 H 17.54653 16.96868 v 3.210277 h 0.57785 v -1.366661 h 1.1557 v -0.444853 h -1.1557 v -0.953911 z"
         style="font-style:normal;font-variant:normal;font-weight:bold;font-stretch:normal;font-family:'Artifakt Element';-inkscape-font-specification:'Artifakt Element Bold'"
         id="path4854" />
      <path
         d="m 21.340435,43.434118 0.963083,-1.458383 h -0.623711 l -0.692503,1.114425 h -0.0046 L 20.30396,41.975735 h -0.642056 l 0.953911,1.499658 -6.719652,3.617217 6.293144,-1.906598 0.788811,-1.329972 0.779639,1.329972 h 0.655814 z"
         style="font-style:normal;font-variant:normal;font-weight:bold;font-stretch:normal;font-family:'Artifakt Element';-inkscape-font-specification:'Artifakt Element Bold'"
         id="path4856"
         inkscape:connector-curvature="0"
         sodipodi:nodetypes="cccccccccccccc" />
      <path
         d="m 25.409004,41.975735 h -0.898877 -1.481314 v 0.444852 h 0.903464 v 2.765425 h 0.57785 v -2.765425 h 0.898877 z"
         style="font-style:normal;font-variant:normal;font-weight:bold;font-stretch:normal;font-family:'Artifakt Element';-inkscape-font-specification:'Artifakt Element Bold'"
         id="path4858" />
      <path
         d="m 28.354264,45.186012 -0.733778,-1.362075 q -0.02752,0.0046 -0.09172,0.0046 h -0.609953 v 1.357489 h -0.343958 v -3.210277 h 0.944739 q 0.499886,0 0.793397,0.224719 0.298097,0.220133 0.298097,0.600781 v 0.210961 q 0,0.275166 -0.174272,0.472369 -0.169686,0.197203 -0.472369,0.279753 l 0.770466,1.421694 z m -0.830086,-1.637241 q 0.348544,0 0.541161,-0.14217 0.197203,-0.142169 0.197203,-0.403578 v -0.192616 q 0,-0.261409 -0.201789,-0.408164 -0.201789,-0.146756 -0.545747,-0.146756 h -0.596195 v 1.293284 z"
         style="font-style:normal;font-variant:normal;font-weight:normal;font-stretch:normal;font-size:4.58611107px;font-family:'Artifakt Element';-inkscape-font-specification:'Artifakt Element';letter-spacing:0.52916676px;stroke-width:0.26458332"
         id="path4860" />
      <path
         d="m 31.613313,44.195412 h -1.252008 l -0.311855,0.9906 h -0.353131 l 1.050219,-3.210277 h 0.47237 l 1.082322,3.210277 h -0.357717 z m -1.164872,-0.284339 h 1.07315 L 30.98043,42.227971 Z"
         style="font-style:normal;font-variant:normal;font-weight:normal;font-stretch:normal;font-size:4.58611107px;font-family:'Artifakt Element';-inkscape-font-specification:'Artifakt Element';letter-spacing:0.52916676px;stroke-width:0.26458332"
         id="path4862" />
      <path
         d="m 34.49537,45.241046 q -0.564092,0 -0.875947,-0.325614 -0.311856,-0.325614 -0.311856,-0.871361 V 43.19564 q 0,-0.385233 0.14217,-0.669572 0.146755,-0.288925 0.417336,-0.444853 0.275167,-0.160514 0.651228,-0.160514 0.298097,0 0.509058,0.09172 0.215547,0.08714 0.403578,0.252237 l -0.183445,0.206375 q -0.155927,-0.128412 -0.325614,-0.197203 -0.1651,-0.07338 -0.394405,-0.07338 -0.417336,0 -0.646642,0.261408 -0.229305,0.261409 -0.229305,0.724606 v 0.84843 q 0,0.440267 0.215547,0.683331 0.220133,0.243064 0.632883,0.243064 0.233892,0 0.41275,-0.06879 0.178859,-0.06879 0.334786,-0.18803 l 0.151342,0.220133 q -0.169686,0.137583 -0.398992,0.229305 -0.224719,0.08714 -0.504472,0.08714 z"
         style="font-style:normal;font-variant:normal;font-weight:normal;font-stretch:normal;font-size:4.58611107px;font-family:'Artifakt Element';-inkscape-font-specification:'Artifakt Element';letter-spacing:0.52916676px;stroke-width:0.26458332"
         id="path4864" />
      <path
         d="m 38.487408,42.260073 h -0.958497 v 2.925939 h -0.343959 v -2.925939 h -0.953911 v -0.284338 h 2.256367 z"
         style="font-style:normal;font-variant:normal;font-weight:normal;font-stretch:normal;font-size:4.58611107px;font-family:'Artifakt Element';-inkscape-font-specification:'Artifakt Element';letter-spacing:0.52916676px;stroke-width:0.26458332"
         id="path4866" />
    </g>
    <text
       id="text4873"
       y="27.113268"
       x="40.671734"
       style="font-style:normal;font-variant:normal;font-weight:bold;font-stretch:normal;font-size:10.58333302px;line-height:1.25;font-family:'Artifakt Element';-inkscape-font-specification:'Artifakt Element Bold';letter-spacing:0px;word-spacing:0px;fill:#000000;fill-opacity:1;stroke:none;stroke-width:0.26458332"
       xml:space="preserve"><tspan
         dx="0"
         style="font-style:normal;font-variant:normal;font-weight:normal;font-stretch:normal;font-size:4.58611107px;font-family:'Artifakt Element';-inkscape-font-specification:'Artifakt Element';letter-spacing:0.52916676px;stroke-width:0.26458332"
         y="27.113268"
         x="40.671734"
         id="tspan4871"
         sodipodi:role="line"><tspan
   id="tspan4869"
   style="font-style:normal;font-variant:normal;font-weight:bold;font-stretch:normal;font-family:'Artifakt Element';-inkscape-font-specification:'Artifakt Element Bold'">FXT</tspan>RACT</tspan></text>
    <g
       id="g68"
       style="font-style:normal;font-variant:normal;font-weight:bold;font-stretch:normal;font-size:10.58333302px;line-height:1.25;font-family:'Artifakt Element';-inkscape-font-specification:'Artifakt Element Bold';letter-spacing:0px;word-spacing:0px;fill:#000000;fill-opacity:1;stroke:none;stroke-width:0.26458332"
       aria-label="FXTRACT"
       transform="translate(-3.5380346,-10.10519)">
      <path
         id="path54"
         style="font-style:normal;font-variant:normal;font-weight:bold;font-stretch:normal;font-family:'Artifakt Element';-inkscape-font-specification:'Artifakt Element Bold'"
         d="M 18.894847,42.420587 V 41.975735 H 17.54653 16.96868 v 3.210277 h 0.57785 v -1.366661 h 1.1557 v -0.444853 h -1.1557 v -0.953911 z"
         inkscape:connector-curvature="0" />
      <path
         sodipodi:nodetypes="cccccccccccccc"
         inkscape:connector-curvature="0"
         id="path56"
         style="font-style:normal;font-variant:normal;font-weight:bold;font-stretch:normal;font-family:'Artifakt Element';-inkscape-font-specification:'Artifakt Element Bold'"
         d="m 21.340435,43.434118 4.658977,-4.134354 -4.433322,2.135816 -0.578786,1.65458 h -0.0046 L 20.30396,41.975735 h -0.642056 l 0.953911,1.499658 -6.719652,3.617217 6.293144,-1.906598 0.788811,-1.329972 0.779639,1.329972 h 0.655814 z" />
      <path
         id="path58"
         style="font-style:normal;font-variant:normal;font-weight:bold;font-stretch:normal;font-family:'Artifakt Element';-inkscape-font-specification:'Artifakt Element Bold'"
         d="m 25.409004,41.975735 h -0.898877 -1.481314 v 0.444852 h 0.903464 v 2.765425 h 0.57785 v -2.765425 h 0.898877 z"
         inkscape:connector-curvature="0" />
      <path
         id="path60"
         style="font-style:normal;font-variant:normal;font-weight:normal;font-stretch:normal;font-size:4.58611107px;font-family:'Artifakt Element';-inkscape-font-specification:'Artifakt Element';letter-spacing:0.52916676px;stroke-width:0.26458332"
         d="m 28.354264,45.186012 -0.733778,-1.362075 q -0.02752,0.0046 -0.09172,0.0046 h -0.609953 v 1.357489 h -0.343958 v -3.210277 h 0.944739 q 0.499886,0 0.793397,0.224719 0.298097,0.220133 0.298097,0.600781 v 0.210961 q 0,0.275166 -0.174272,0.472369 -0.169686,0.197203 -0.472369,0.279753 l 0.770466,1.421694 z m -0.830086,-1.637241 q 0.348544,0 0.541161,-0.14217 0.197203,-0.142169 0.197203,-0.403578 v -0.192616 q 0,-0.261409 -0.201789,-0.408164 -0.201789,-0.146756 -0.545747,-0.146756 h -0.596195 v 1.293284 z"
         inkscape:connector-curvature="0" />
      <path
         id="path62"
         style="font-style:normal;font-variant:normal;font-weight:normal;font-stretch:normal;font-size:4.58611107px;font-family:'Artifakt Element';-inkscape-font-specification:'Artifakt Element';letter-spacing:0.52916676px;stroke-width:0.26458332"
         d="m 31.613313,44.195412 h -1.252008 l -0.311855,0.9906 h -0.353131 l 1.050219,-3.210277 h 0.47237 l 1.082322,3.210277 h -0.357717 z m -1.164872,-0.284339 h 1.07315 L 30.98043,42.227971 Z"
         inkscape:connector-curvature="0" />
      <path
         id="path64"
         style="font-style:normal;font-variant:normal;font-weight:normal;font-stretch:normal;font-size:4.58611107px;font-family:'Artifakt Element';-inkscape-font-specification:'Artifakt Element';letter-spacing:0.52916676px;stroke-width:0.26458332"
         d="m 34.49537,45.241046 q -0.564092,0 -0.875947,-0.325614 -0.311856,-0.325614 -0.311856,-0.871361 V 43.19564 q 0,-0.385233 0.14217,-0.669572 0.146755,-0.288925 0.417336,-0.444853 0.275167,-0.160514 0.651228,-0.160514 0.298097,0 0.509058,0.09172 0.215547,0.08714 0.403578,0.252237 l -0.183445,0.206375 q -0.155927,-0.128412 -0.325614,-0.197203 -0.1651,-0.07338 -0.394405,-0.07338 -0.417336,0 -0.646642,0.261408 -0.229305,0.261409 -0.229305,0.724606 v 0.84843 q 0,0.440267 0.215547,0.683331 0.220133,0.243064 0.632883,0.243064 0.233892,0 0.41275,-0.06879 0.178859,-0.06879 0.334786,-0.18803 l 0.151342,0.220133 q -0.169686,0.137583 -0.398992,0.229305 -0.224719,0.08714 -0.504472,0.08714 z"
         inkscape:connector-curvature="0" />
      <path
         id="path66"
         style="font-style:normal;font-variant:normal;font-weight:normal;font-stretch:normal;font-size:4.58611107px;font-family:'Artifakt Element';-inkscape-font-specification:'Artifakt Element';letter-spacing:0.52916676px;stroke-width:0.26458332"
         d="m 38.487408,42.260073 h -0.958497 v 2.925939 h -0.343959 v -2.925939 h -0.953911 v -0.284338 h 2.256367 z"
         inkscape:connector-curvature="0" />
      <path
         inkscape:connector-curvature="0"
         d="M 18.894847,32.288942 V 31.84409 H 17.54653 16.96868 v 3.210277 h 0.57785 v -1.366661 h 1.1557 v -0.444853 h -1.1557 v -0.953911 z"
         style="font-style:normal;font-variant:normal;font-weight:bold;font-stretch:normal;font-family:'Artifakt Element';-inkscape-font-specification:'Artifakt Element Bold'"
         id="path70" />
      <path
         d="m 21.340435,33.302473 4.658977,-4.134354 -4.433322,2.135816 -0.578786,1.65458 h -0.0046 l -0.517924,-0.893298 -3.858451,-3.09578 4.009486,4.374311 -6.719652,3.617217 6.293144,-1.906598 0.788811,-1.329972 0.940459,1.189255 4.555693,2.713833 z"
         style="font-style:normal;font-variant:normal;font-weight:bold;font-stretch:normal;font-family:'Artifakt Element';-inkscape-font-specification:'Artifakt Element Bold'"
         id="path72"
         inkscape:connector-curvature="0"
         sodipodi:nodetypes="cccccccccccccc" />
      <path
         inkscape:connector-curvature="0"
         d="m 25.409004,31.84409 h -0.898877 -1.481314 v 0.444852 h 0.903464 v 2.765425 h 0.57785 v -2.765425 h 0.898877 z"
         style="font-style:normal;font-variant:normal;font-weight:bold;font-stretch:normal;font-family:'Artifakt Element';-inkscape-font-specification:'Artifakt Element Bold'"
         id="path74" />
      <path
         inkscape:connector-curvature="0"
         d="m 28.354264,35.054367 -0.733778,-1.362075 q -0.02752,0.0046 -0.09172,0.0046 h -0.609953 v 1.357489 h -0.343958 v -3.210277 h 0.944739 q 0.499886,0 0.793397,0.224719 0.298097,0.220133 0.298097,0.600781 v 0.210961 q 0,0.275166 -0.174272,0.472369 -0.169686,0.197203 -0.472369,0.279753 l 0.770466,1.421694 z m -0.830086,-1.637241 q 0.348544,0 0.541161,-0.14217 0.197203,-0.142169 0.197203,-0.403578 v -0.192616 q 0,-0.261409 -0.201789,-0.408164 -0.201789,-0.146756 -0.545747,-0.146756 h -0.596195 v 1.293284 z"
         style="font-style:normal;font-variant:normal;font-weight:normal;font-stretch:normal;font-size:4.58611107px;font-family:'Artifakt Element';-inkscape-font-specification:'Artifakt Element';letter-spacing:0.52916676px;stroke-width:0.26458332"
         id="path76" />
      <path
         inkscape:connector-curvature="0"
         d="m 31.613313,34.063767 h -1.252008 l -0.311855,0.9906 h -0.353131 l 1.050219,-3.210277 h 0.47237 l 1.082322,3.210277 h -0.357717 z m -1.164872,-0.284339 h 1.07315 L 30.98043,32.096326 Z"
         style="font-style:normal;font-variant:normal;font-weight:normal;font-stretch:normal;font-size:4.58611107px;font-family:'Artifakt Element';-inkscape-font-specification:'Artifakt Element';letter-spacing:0.52916676px;stroke-width:0.26458332"
         id="path78" />
      <path
         inkscape:connector-curvature="0"
         d="m 34.49537,35.109401 q -0.564092,0 -0.875947,-0.325614 -0.311856,-0.325614 -0.311856,-0.871361 v -0.848431 q 0,-0.385233 0.14217,-0.669572 0.146755,-0.288925 0.417336,-0.444853 0.275167,-0.160514 0.651228,-0.160514 0.298097,0 0.509058,0.09172 0.215547,0.08714 0.403578,0.252237 l -0.183445,0.206375 q -0.155927,-0.128412 -0.325614,-0.197203 -0.1651,-0.07338 -0.394405,-0.07338 -0.417336,0 -0.646642,0.261408 -0.229305,0.261409 -0.229305,0.724606 v 0.84843 q 0,0.440267 0.215547,0.683331 0.220133,0.243064 0.632883,0.243064 0.233892,0 0.41275,-0.06879 0.178859,-0.06879 0.334786,-0.18803 l 0.151342,0.220133 q -0.169686,0.137583 -0.398992,0.229305 -0.224719,0.08714 -0.504472,0.08714 z"
         style="font-style:normal;font-variant:normal;font-weight:normal;font-stretch:normal;font-size:4.58611107px;font-family:'Artifakt Element';-inkscape-font-specification:'Artifakt Element';letter-spacing:0.52916676px;stroke-width:0.26458332"
         id="path80" />
      <path
         inkscape:connector-curvature="0"
         d="m 38.487408,32.128428 h -0.958497 v 2.925939 H 37.184952 V 32.128428 H 36.231041 V 31.84409 h 2.256367 z"
         style="font-style:normal;font-variant:normal;font-weight:normal;font-stretch:normal;font-size:4.58611107px;font-family:'Artifakt Element';-inkscape-font-specification:'Artifakt Element';letter-spacing:0.52916676px;stroke-width:0.26458332"
         id="path82" />
      <path
         inkscape:connector-curvature="0"
         d="M 18.894847,42.420587 V 41.975735 H 17.54653 16.96868 v 3.210277 h 0.57785 v -1.366661 h 1.1557 v -0.444853 h -1.1557 v -0.953911 z"
         style="font-style:normal;font-variant:normal;font-weight:bold;font-stretch:normal;font-family:'Artifakt Element';-inkscape-font-specification:'Artifakt Element Bold'"
         id="path99" />
      <path
         d="m 21.340435,43.434118 4.658977,-4.134354 -4.433322,2.135816 -0.578786,1.65458 h -0.0046 L 20.30396,41.975735 h -0.642056 l 0.953911,1.499658 -6.719652,3.617217 6.293144,-1.906598 0.788811,-1.329972 0.779639,1.329972 h 0.655814 z"
         style="font-style:normal;font-variant:normal;font-weight:bold;font-stretch:normal;font-family:'Artifakt Element';-inkscape-font-specification:'Artifakt Element Bold'"
         id="path101"
         inkscape:connector-curvature="0"
         sodipodi:nodetypes="cccccccccccccc" />
      <path
         inkscape:connector-curvature="0"
         d="m 25.409004,41.975735 h -0.898877 -1.481314 v 0.444852 h 0.903464 v 2.765425 h 0.57785 v -2.765425 h 0.898877 z"
         style="font-style:normal;font-variant:normal;font-weight:bold;font-stretch:normal;font-family:'Artifakt Element';-inkscape-font-specification:'Artifakt Element Bold'"
         id="path103" />
      <path
         inkscape:connector-curvature="0"
         d="m 28.354264,45.186012 -0.733778,-1.362075 q -0.02752,0.0046 -0.09172,0.0046 h -0.609953 v 1.357489 h -0.343958 v -3.210277 h 0.944739 q 0.499886,0 0.793397,0.224719 0.298097,0.220133 0.298097,0.600781 v 0.210961 q 0,0.275166 -0.174272,0.472369 -0.169686,0.197203 -0.472369,0.279753 l 0.770466,1.421694 z m -0.830086,-1.637241 q 0.348544,0 0.541161,-0.14217 0.197203,-0.142169 0.197203,-0.403578 v -0.192616 q 0,-0.261409 -0.201789,-0.408164 -0.201789,-0.146756 -0.545747,-0.146756 h -0.596195 v 1.293284 z"
         style="font-style:normal;font-variant:normal;font-weight:normal;font-stretch:normal;font-size:4.58611107px;font-family:'Artifakt Element';-inkscape-font-specification:'Artifakt Element';letter-spacing:0.52916676px;stroke-width:0.26458332"
         id="path105" />
      <path
         inkscape:connector-curvature="0"
         d="m 31.613313,44.195412 h -1.252008 l -0.311855,0.9906 h -0.353131 l 1.050219,-3.210277 h 0.47237 l 1.082322,3.210277 h -0.357717 z m -1.164872,-0.284339 h 1.07315 L 30.98043,42.227971 Z"
         style="font-style:normal;font-variant:normal;font-weight:normal;font-stretch:normal;font-size:4.58611107px;font-family:'Artifakt Element';-inkscape-font-specification:'Artifakt Element';letter-spacing:0.52916676px;stroke-width:0.26458332"
         id="path107" />
      <path
         inkscape:connector-curvature="0"
         d="m 34.49537,45.241046 q -0.564092,0 -0.875947,-0.325614 -0.311856,-0.325614 -0.311856,-0.871361 V 43.19564 q 0,-0.385233 0.14217,-0.669572 0.146755,-0.288925 0.417336,-0.444853 0.275167,-0.160514 0.651228,-0.160514 0.298097,0 0.509058,0.09172 0.215547,0.08714 0.403578,0.252237 l -0.183445,0.206375 q -0.155927,-0.128412 -0.325614,-0.197203 -0.1651,-0.07338 -0.394405,-0.07338 -0.417336,0 -0.646642,0.261408 -0.229305,0.261409 -0.229305,0.724606 v 0.84843 q 0,0.440267 0.215547,0.683331 0.220133,0.243064 0.632883,0.243064 0.233892,0 0.41275,-0.06879 0.178859,-0.06879 0.334786,-0.18803 l 0.151342,0.220133 q -0.169686,0.137583 -0.398992,0.229305 -0.224719,0.08714 -0.504472,0.08714 z"
         style="font-style:normal;font-variant:normal;font-weight:normal;font-stretch:normal;font-size:4.58611107px;font-family:'Artifakt Element';-inkscape-font-specification:'Artifakt Element';letter-spacing:0.52916676px;stroke-width:0.26458332"
         id="path109" />
      <path
         inkscape:connector-curvature="0"
         d="m 38.487408,42.260073 h -0.958497 v 2.925939 h -0.343959 v -2.925939 h -0.953911 v -0.284338 h 2.256367 z"
         style="font-style:normal;font-variant:normal;font-weight:normal;font-stretch:normal;font-size:4.58611107px;font-family:'Artifakt Element';-inkscape-font-specification:'Artifakt Element';letter-spacing:0.52916676px;stroke-width:0.26458332"
         id="path111" />
      <path
         inkscape:connector-curvature="0"
         d="m 8.4549237,22.379469 v -0.444852 h -1.34831 -0.57785 v 3.210277 h 0.57785 v -1.366661 h 1.1557 V 23.33338 h -1.1557 v -0.953911 z"
         style="font-style:normal;font-variant:normal;font-weight:bold;font-stretch:normal;font-size:10.58333302px;line-height:1.25;font-family:'Artifakt Element';-inkscape-font-specification:'Artifakt Element Bold';letter-spacing:0px;word-spacing:0px;fill:#000000;fill-opacity:1;stroke:none;stroke-width:0.26458332"
         id="path99-3" />
      <path
         d="m 10.900514,23.393 1.19062,-1.483332 -2.2270902,0.02495 0.6833402,1.114425 h -0.005 l -0.6787403,-1.114422 -0.969,-0.01422 1.2808503,1.513873 -1.2612503,1.726676 2.4031903,-0.01606 -0.77963,-1.329972 0.77963,1.329972 h 0.65582 z"
         style="font-style:normal;font-variant:normal;font-weight:bold;font-stretch:normal;font-size:10.58333302px;line-height:1.25;font-family:'Artifakt Element';-inkscape-font-specification:'Artifakt Element Bold';letter-spacing:0px;word-spacing:0px;fill:#000000;fill-opacity:1;stroke:none;stroke-width:0.26458332"
         id="path101-6"
         inkscape:connector-curvature="0"
         sodipodi:nodetypes="cccccccccccccc" />
      <path
         inkscape:connector-curvature="0"
         d="m 14.969084,21.934617 h -0.89888 -1.48131 v 0.444852 h 0.90346 v 2.765425 h 0.57785 v -2.765425 h 0.89888 z"
         style="font-style:normal;font-variant:normal;font-weight:bold;font-stretch:normal;font-size:10.58333302px;line-height:1.25;font-family:'Artifakt Element';-inkscape-font-specification:'Artifakt Element Bold';letter-spacing:0px;word-spacing:0px;fill:#000000;fill-opacity:1;stroke:none;stroke-width:0.26458332"
         id="path103-7" />
      <path
         inkscape:connector-curvature="0"
         d="m 17.914344,25.144894 -0.73378,-1.362075 q -0.0275,0.0046 -0.0917,0.0046 h -0.60995 v 1.357489 h -0.34396 v -3.210277 h 0.94474 q 0.49989,0 0.7934,0.224719 0.29809,0.220133 0.29809,0.600781 v 0.210961 q 0,0.275166 -0.17427,0.472369 -0.16968,0.197203 -0.47237,0.279753 l 0.77047,1.421694 z m -0.83009,-1.637241 q 0.34855,0 0.54117,-0.14217 0.1972,-0.142169 0.1972,-0.403578 v -0.192616 q 0,-0.261409 -0.20179,-0.408164 -0.20179,-0.146756 -0.54575,-0.146756 h -0.59619 v 1.293284 z"
         style="font-style:normal;font-variant:normal;font-weight:normal;font-stretch:normal;font-size:4.58611107px;line-height:1.25;font-family:'Artifakt Element';-inkscape-font-specification:'Artifakt Element';letter-spacing:0.52916676px;word-spacing:0px;fill:#000000;fill-opacity:1;stroke:none;stroke-width:0.26458332"
         id="path105-5" />
      <path
         inkscape:connector-curvature="0"
         d="m 21.173394,24.154294 h -1.25201 l -0.31185,0.9906 h -0.35313 l 1.05021,-3.210277 h 0.47237 l 1.08233,3.210277 h -0.35772 z m -1.16487,-0.284339 h 1.07315 l -0.54116,-1.683102 z"
         style="font-style:normal;font-variant:normal;font-weight:normal;font-stretch:normal;font-size:4.58611107px;line-height:1.25;font-family:'Artifakt Element';-inkscape-font-specification:'Artifakt Element';letter-spacing:0.52916676px;word-spacing:0px;fill:#000000;fill-opacity:1;stroke:none;stroke-width:0.26458332"
         id="path107-3" />
      <path
         inkscape:connector-curvature="0"
         d="m 24.055454,25.199928 q -0.5641,0 -0.87595,-0.325614 -0.31186,-0.325614 -0.31186,-0.871361 v -0.848431 q 0,-0.385233 0.14217,-0.669572 0.14676,-0.288925 0.41734,-0.444853 0.27517,-0.160514 0.65123,-0.160514 0.29809,0 0.50906,0.09172 0.21554,0.08714 0.40357,0.252237 l -0.18344,0.206375 q -0.15593,-0.128412 -0.32562,-0.197203 -0.1651,-0.07338 -0.3944,-0.07338 -0.41734,0 -0.64664,0.261408 -0.22931,0.261409 -0.22931,0.724606 v 0.84843 q 0,0.440267 0.21555,0.683331 0.22013,0.243064 0.63288,0.243064 0.23389,0 0.41275,-0.06879 0.17886,-0.06879 0.33479,-0.18803 l 0.15134,0.220133 q -0.16969,0.137583 -0.39899,0.229305 -0.22472,0.08714 -0.50447,0.08714 z"
         style="font-style:normal;font-variant:normal;font-weight:normal;font-stretch:normal;font-size:4.58611107px;line-height:1.25;font-family:'Artifakt Element';-inkscape-font-specification:'Artifakt Element';letter-spacing:0.52916676px;word-spacing:0px;fill:#000000;fill-opacity:1;stroke:none;stroke-width:0.26458332"
         id="path109-5" />
      <path
         inkscape:connector-curvature="0"
         d="m 28.047484,22.218955 h -0.95849 v 2.925939 h -0.34396 v -2.925939 h -0.95391 v -0.284338 h 2.25636 z"
         style="font-style:normal;font-variant:normal;font-weight:normal;font-stretch:normal;font-size:4.58611107px;line-height:1.25;font-family:'Artifakt Element';-inkscape-font-specification:'Artifakt Element';letter-spacing:0.52916676px;word-spacing:0px;fill:#000000;fill-opacity:1;stroke:none;stroke-width:0.26458332"
         id="path111-6" />
    </g>
    <text
       id="text191"
       y="16.64311"
       x="40.671734"
       style="font-style:normal;font-variant:normal;font-weight:bold;font-stretch:normal;font-size:10.58333302px;line-height:1.25;font-family:'Artifakt Element';-inkscape-font-specification:'Artifakt Element Bold';letter-spacing:0px;word-spacing:0px;fill:#000000;fill-opacity:1;stroke:none;stroke-width:0.26458332"
       xml:space="preserve"><tspan
         dx="0"
         style="font-style:normal;font-variant:normal;font-weight:bold;font-stretch:normal;font-size:4.58611107px;font-family:Z003;-inkscape-font-specification:'Z003 Bold';letter-spacing:0.52916676px;stroke-width:0.26458332"
         y="16.64311"
         x="40.671734"
         id="tspan189"
         sodipodi:role="line">FXTRACT</tspan></text>
    <g
       aria-label="x"
       style="font-style:normal;font-weight:normal;font-size:10.58333302px;line-height:1.25;font-family:sans-serif;letter-spacing:0px;word-spacing:0px;fill:none;fill-opacity:1;stroke:#000000;stroke-width:0.26458332;stroke-opacity:1"
       id="text255">
      <path
         d="m 90.855866,9.2308335 -6.341171,6.4062555 5.606088,6.680126 -3.529441,-0.284292 -3.195915,-4.33897 -3.593923,4.850695 -5.462627,1.023451 7.865925,-8.222852 -5.524841,-6.0575551 3.415725,0.7391591 3.103644,4.171264 3.160502,-4.5124145 z"
         style="font-style:normal;font-variant:normal;font-weight:normal;font-stretch:normal;font-size:22.57777786px;font-family:sans-serif;-inkscape-font-specification:sans-serif;fill:none;stroke:#000000;stroke-width:0.26458332;stroke-opacity:1"
         id="path1066"
         inkscape:connector-curvature="0"
         sodipodi:nodetypes="ccccccccccccc" />
    </g>
    <text
       xml:space="preserve"
       style="font-style:normal;font-weight:normal;font-size:10.58333302px;line-height:1.25;font-family:sans-serif;letter-spacing:0px;word-spacing:0px;fill:#000000;fill-opacity:1;stroke:none;stroke-width:0.26458332"
       x="81.080032"
       y="18.67828"
       id="text259"><tspan
         sodipodi:role="line"
         id="tspan257"
         x="81.080032"
         y="18.67828"
         style="font-size:7.05555534px;stroke-width:0.26458332">F</tspan></text>
  </g>
</svg>
