<?xml version="1.0" encoding="UTF-8" standalone="no"?>
<!-- Created with Inkscape (http://www.inkscape.org/) -->

<svg
   xmlns:dc="http://purl.org/dc/elements/1.1/"
   xmlns:cc="http://creativecommons.org/ns#"
   xmlns:rdf="http://www.w3.org/1999/02/22-rdf-syntax-ns#"
   xmlns:svg="http://www.w3.org/2000/svg"
   xmlns="http://www.w3.org/2000/svg"
   xmlns:sodipodi="http://sodipodi.sourceforge.net/DTD/sodipodi-0.dtd"
   xmlns:inkscape="http://www.inkscape.org/namespaces/inkscape"
   width="210mm"
   height="297mm"
   viewBox="0 0 210 297"
   version="1.1"
   id="svg8"
   inkscape:version="0.92.3 (2405546, 2018-03-11)"
   sodipodi:docname="fxtract.svg">
  <defs
     id="defs2" />
  <sodipodi:namedview
     id="base"
     pagecolor="#ffffff"
     bordercolor="#666666"
     borderopacity="1.0"
     inkscape:pageopacity="0.0"
     inkscape:pageshadow="2"
     inkscape:zoom="2.7230232"
     inkscape:cx="209.11075"
     inkscape:cy="978.98877"
     inkscape:document-units="mm"
     inkscape:current-layer="layer1"
     showgrid="false"
     inkscape:window-width="1920"
     inkscape:window-height="1016"
     inkscape:window-x="0"
     inkscape:window-y="27"
     inkscape:window-maximized="1" />
  <metadata
     id="metadata5">
    <rdf:RDF>
      <cc:Work
         rdf:about="">
        <dc:format>image/svg+xml</dc:format>
        <dc:type
           rdf:resource="http://purl.org/dc/dcmitype/StillImage" />
        <dc:title />
      </cc:Work>
    </rdf:RDF>
  </metadata>
  <g
     inkscape:label="Layer 1"
     inkscape:groupmode="layer"
     id="layer1">
    <text
       xml:space="preserve"
       style="font-style:normal;font-variant:normal;font-weight:bold;font-stretch:normal;font-size:10.58333302px;line-height:1.25;font-family:'Artifakt Element';-inkscape-font-specification:'Artifakt Element Bold';letter-spacing:0px;word-spacing:0px;fill:#000000;fill-opacity:1;stroke:none;stroke-width:0.26458332"
       x="40.443455"
       y="67.568451"
       id="text12"><tspan
         sodipodi:role="line"
         id="tspan10"
         x="40.443455"
         y="67.568451"
         style="font-size:4.58611107px;stroke-width:0.26458332;letter-spacing:0.52916667px"
         dx="0">FXTRACT</tspan></text>
    <rect
       id="rect17"
       width="1.9150351"
       height="0.087982088"
       x="68.042442"
       y="36.031765"
       style="fill:#4caf50;fill-opacity:1;stroke-width:0.14136797"
       transform="rotate(30)" />
    <text
       id="text25"
       y="59.158482"
       x="40.443455"
       style="font-style:normal;font-variant:normal;font-weight:bold;font-stretch:normal;font-size:10.58333302px;line-height:1.25;font-family:'Artifakt Element';-inkscape-font-specification:'Artifakt Element Bold';letter-spacing:0px;word-spacing:0px;fill:#000000;fill-opacity:1;stroke:none;stroke-width:0.26458332"
       xml:space="preserve"><tspan
         dx="0"
         style="font-size:4.58611107px;letter-spacing:0.5291667px;stroke-width:0.26458332"
         y="59.158482"
         x="40.443455"
         id="tspan23"
         sodipodi:role="line">FXTRACT</tspan></text>
    <text
       id="text25-3"
       y="52.468872"
       x="40.671734"
       style="font-style:normal;font-variant:normal;font-weight:bold;font-stretch:normal;font-size:10.58333302px;line-height:1.25;font-family:'Artifakt Element';-inkscape-font-specification:'Artifakt Element Bold';letter-spacing:0px;word-spacing:0px;fill:#000000;fill-opacity:1;stroke:none;stroke-width:0.26458332"
       xml:space="preserve"><tspan
         dx="0"
         style="font-style:normal;font-variant:normal;font-weight:normal;font-stretch:normal;font-size:4.58611107px;font-family:'Artifakt Element';-inkscape-font-specification:'Artifakt Element';letter-spacing:0.52916676px;stroke-width:0.26458332"
         y="52.468872"
         x="40.671734"
         id="tspan23-6"
         sodipodi:role="line">FXTRACT</tspan></text>
    <text
       id="text25-3-7"
       y="51.966652"
       x="69.042633"
       style="font-style:normal;font-variant:normal;font-weight:bold;font-stretch:normal;font-size:10.58333302px;line-height:1.25;font-family:'Artifakt Element';-inkscape-font-specification:'Artifakt Element Bold';letter-spacing:0px;word-spacing:0px;fill:#000000;fill-opacity:1;stroke:none;stroke-width:0.26458332"
       xml:space="preserve"><tspan
         dx="0"
         style="font-style:normal;font-variant:normal;font-weight:bold;font-stretch:normal;font-size:4.58611107px;font-family:Overpass;-inkscape-font-specification:'Overpass Bold';letter-spacing:0.52916682px;stroke-width:0.26458332"
         y="51.966652"
         x="69.042633"
         id="tspan23-6-5"
         sodipodi:role="line">FXTRACT</tspan></text>
    <text
       xml:space="preserve"
       style="font-style:normal;font-weight:normal;font-size:10.58333302px;line-height:1.25;font-family:sans-serif;letter-spacing:0px;word-spacing:0px;fill:#000000;fill-opacity:1;stroke:none;stroke-width:0.26458332"
       x="81.831841"
       y="54.244789"
       id="text65"><tspan
         sodipodi:role="line"
         id="tspan63"
         x="81.831841"
         y="63.608559"
         style="stroke-width:0.26458332"></tspan></text>
    <text
       id="text25-3-7-9"
       y="60.149414"
       x="69.114052"
       style="font-style:normal;font-variant:normal;font-weight:bold;font-stretch:normal;font-size:10.58333302px;line-height:1.25;font-family:'Artifakt Element';-inkscape-font-specification:'Artifakt Element Bold';letter-spacing:0px;word-spacing:0px;fill:#000000;fill-opacity:1;stroke:none;stroke-width:0.26458332"
       xml:space="preserve"><tspan
         dx="0"
         style="font-style:normal;font-variant:normal;font-weight:800;font-stretch:normal;font-size:4.58611107px;font-family:Overpass;-inkscape-font-specification:'Overpass Ultra-Bold';letter-spacing:0.52916682px;stroke-width:0.26458332"
         y="60.149414"
         x="69.114052"
         id="tspan23-6-5-6"
         sodipodi:role="line">FXTRACT</tspan></text>
    <text
       xml:space="preserve"
       style="font-style:normal;font-variant:normal;font-weight:bold;font-stretch:normal;font-size:10.58333302px;line-height:1.25;font-family:'Artifakt Element';-inkscape-font-specification:'Artifakt Element Bold';letter-spacing:0px;word-spacing:0px;fill:#4caf50;fill-opacity:1;stroke:none;stroke-width:0.26458332;"
       x="40.443455"
       y="74.324776"
       id="text87"><tspan
         sodipodi:role="line"
         id="tspan85"
         x="40.443455"
         y="74.324776"
         style="font-size:4.58611107px;letter-spacing:0.5291667px;stroke-width:0.26458332;fill:#4caf50;fill-opacity:1;"
         dx="0">FXTRACT</tspan></text>
    <text
       xml:space="preserve"
       style="font-style:normal;font-variant:normal;font-weight:bold;font-stretch:normal;font-size:10.58333302px;line-height:1.25;font-family:'Artifakt Element';-inkscape-font-specification:'Artifakt Element Bold';letter-spacing:0px;word-spacing:0px;fill:#000000;fill-opacity:1;stroke:none;stroke-width:0.26458332"
       x="40.671734"
       y="45.186012"
       id="text4599"><tspan
         sodipodi:role="line"
         id="tspan4597"
         x="40.671734"
         y="45.186012"
         style="font-style:normal;font-variant:normal;font-weight:normal;font-stretch:normal;font-size:4.58611107px;font-family:'Artifakt Element';-inkscape-font-specification:'Artifakt Element';letter-spacing:0.52916676px;stroke-width:0.26458332"
         dx="0"><tspan
   style="font-style:normal;font-variant:normal;font-weight:bold;font-stretch:normal;font-family:'Artifakt Element';-inkscape-font-specification:'Artifakt Element Bold'"
   id="tspan4601">FXT</tspan>RACT</tspan></text>
    <text
       xml:space="preserve"
       style="font-style:normal;font-variant:normal;font-weight:bold;font-stretch:normal;font-size:10.58333302px;line-height:1.25;font-family:'Artifakt Element';-inkscape-font-specification:'Artifakt Element Bold';letter-spacing:0px;word-spacing:0px;fill:#000000;fill-opacity:1;stroke:none;stroke-width:0.26458332"
       x="70.215416"
       y="43.880592"
       id="text4605"><tspan
         sodipodi:role="line"
         id="tspan4603"
         x="70.215416"
         y="43.880592"
         style="font-style:normal;font-variant:normal;font-weight:normal;font-stretch:normal;font-size:4.58611107px;font-family:Overpass;-inkscape-font-specification:Overpass;letter-spacing:0.52916676px;stroke-width:0.26458332"
         dx="0">FXTRACT</tspan></text>
    <text
       id="text4609"
       y="74.317451"
       x="69.871887"
       style="font-style:normal;font-variant:normal;font-weight:bold;font-stretch:normal;font-size:10.58333302px;line-height:1.25;font-family:'Artifakt Element';-inkscape-font-specification:'Artifakt Element Bold';letter-spacing:0px;word-spacing:0px;fill:#4caf50;fill-opacity:1;stroke:none;stroke-width:0.26458332;"
       xml:space="preserve"
       inkscape:export-xdpi="96"
       inkscape:export-ydpi="96"><tspan
         dx="0"
         style="font-style:normal;font-variant:normal;font-weight:300;font-stretch:normal;font-size:4.58611107px;font-family:'Open Sans';-inkscape-font-specification:'Open Sans Light';letter-spacing:0.52916676px;stroke-width:0.26458332;fill:#4caf50;fill-opacity:1;"
         y="74.317451"
         x="69.871887"
         id="tspan4607"
         sodipodi:role="line">FXTRACT</tspan></text>
    <text
       xml:space="preserve"
       style="font-style:normal;font-variant:normal;font-weight:bold;font-stretch:normal;font-size:10.58333302px;line-height:1.25;font-family:'Artifakt Element';-inkscape-font-specification:'Artifakt Element Bold';letter-spacing:0px;word-spacing:0px;fill:#000000;fill-opacity:1;stroke:none;stroke-width:0.26458332"
       x="94.193893"
       y="74.317451"
       id="text4613"><tspan
         sodipodi:role="line"
         id="tspan4611"
         x="94.193893"
         y="74.317451"
         style="font-style:normal;font-variant:normal;font-weight:300;font-stretch:normal;font-size:4.58611107px;font-family:'Open Sans';-inkscape-font-specification:'Open Sans Light';letter-spacing:0.52916676px;stroke-width:0.26458332"
         dx="0">FXTRACT</tspan></text>
    <text
       id="text4754"
       y="80.989281"
       x="40.443455"
       style="font-style:normal;font-variant:normal;font-weight:bold;font-stretch:normal;font-size:10.58333302px;line-height:1.25;font-family:'Artifakt Element';-inkscape-font-specification:'Artifakt Element Bold';letter-spacing:0px;word-spacing:0px;fill:#4caf50;fill-opacity:1;stroke:none;stroke-width:0.26458332"
       xml:space="preserve"><tspan
         dx="0"
         style="font-size:4.58611107px;letter-spacing:0.5291667px;fill:#4caf50;fill-opacity:1;stroke-width:0.26458332;-inkscape-font-specification:'Open Sans Medium';font-family:'Open Sans';font-weight:500;font-style:normal;font-stretch:normal;font-variant:normal"
         y="80.989281"
         x="40.443455"
         id="tspan4752"
         sodipodi:role="line">FXTRACT</tspan></text>
    <text
       xml:space="preserve"
       style="font-style:normal;font-variant:normal;font-weight:bold;font-stretch:normal;font-size:10.58333302px;line-height:1.25;font-family:'Artifakt Element';-inkscape-font-specification:'Artifakt Element Bold';letter-spacing:0px;word-spacing:0px;fill:#000000;fill-opacity:1;stroke:none;stroke-width:0.26458332;"
       x="67.307594"
       y="80.989281"
       id="text4758"><tspan
         sodipodi:role="line"
         id="tspan4756"
         x="67.307594"
         y="80.989281"
         style="font-style:normal;font-variant:normal;font-weight:500;font-stretch:normal;font-size:4.58611107px;font-family:'Open Sans';-inkscape-font-specification:'Open Sans Medium';letter-spacing:0.5291667px;fill:#000000;fill-opacity:1;stroke-width:0.26458332;"
         dx="0">FXTRACT</tspan></text>
    <g
       aria-label="FXTRACT"
       style="font-style:normal;font-variant:normal;font-weight:bold;font-stretch:normal;font-size:10.58333302px;line-height:1.25;font-family:'Artifakt Element';-inkscape-font-specification:'Artifakt Element Bold';letter-spacing:0px;word-spacing:0px;fill:#000000;fill-opacity:1;stroke:none;stroke-width:0.26458332"
       id="text4852">
      <path
         d="M 18.894847,42.420587 V 41.975735 H 17.54653 16.96868 v 3.210277 h 0.57785 v -1.366661 h 1.1557 v -0.444853 h -1.1557 v -0.953911 z"
         style="font-style:normal;font-variant:normal;font-weight:bold;font-stretch:normal;font-family:'Artifakt Element';-inkscape-font-specification:'Artifakt Element Bold'"
         id="path4854" />
      <path
         d="m 21.340435,43.434118 0.963083,-1.458383 h -0.623711 l -0.692503,1.114425 h -0.0046 L 20.30396,41.975735 h -0.642056 l 0.953911,1.499658 -6.719652,3.617217 6.293144,-1.906598 0.788811,-1.329972 0.779639,1.329972 h 0.655814 z"
         style="font-style:normal;font-variant:normal;font-weight:bold;font-stretch:normal;font-family:'Artifakt Element';-inkscape-font-specification:'Artifakt Element Bold'"
         id="path4856"
         inkscape:connector-curvature="0"
         sodipodi:nodetypes="cccccccccccccc" />
      <path
         d="m 25.409004,41.975735 h -0.898877 -1.481314 v 0.444852 h 0.903464 v 2.765425 h 0.57785 v -2.765425 h 0.898877 z"
         style="font-style:normal;font-variant:normal;font-weight:bold;font-stretch:normal;font-family:'Artifakt Element';-inkscape-font-specification:'Artifakt Element Bold'"
         id="path4858" />
      <path
         d="m 28.354264,45.186012 -0.733778,-1.362075 q -0.02752,0.0046 -0.09172,0.0046 h -0.609953 v 1.357489 h -0.343958 v -3.210277 h 0.944739 q 0.499886,0 0.793397,0.224719 0.298097,0.220133 0.298097,0.600781 v 0.210961 q 0,0.275166 -0.174272,0.472369 -0.169686,0.197203 -0.472369,0.279753 l 0.770466,1.421694 z m -0.830086,-1.637241 q 0.348544,0 0.541161,-0.14217 0.197203,-0.142169 0.197203,-0.403578 v -0.192616 q 0,-0.261409 -0.201789,-0.408164 -0.201789,-0.146756 -0.545747,-0.146756 h -0.596195 v 1.293284 z"
         style="font-style:normal;font-variant:normal;font-weight:normal;font-stretch:normal;font-size:4.58611107px;font-family:'Artifakt Element';-inkscape-font-specification:'Artifakt Element';letter-spacing:0.52916676px;stroke-width:0.26458332"
         id="path4860" />
      <path
         d="m 31.613313,44.195412 h -1.252008 l -0.311855,0.9906 h -0.353131 l 1.050219,-3.210277 h 0.47237 l 1.082322,3.210277 h -0.357717 z m -1.164872,-0.284339 h 1.07315 L 30.98043,42.227971 Z"
         style="font-style:normal;font-variant:normal;font-weight:normal;font-stretch:normal;font-size:4.58611107px;font-family:'Artifakt Element';-inkscape-font-specification:'Artifakt Element';letter-spacing:0.52916676px;stroke-width:0.26458332"
         id="path4862" />
      <path
         d="m 34.49537,45.241046 q -0.564092,0 -0.875947,-0.325614 -0.311856,-0.325614 -0.311856,-0.871361 V 43.19564 q 0,-0.385233 0.14217,-0.669572 0.146755,-0.288925 0.417336,-0.444853 0.275167,-0.160514 0.651228,-0.160514 0.298097,0 0.509058,0.09172 0.215547,0.08714 0.403578,0.252237 l -0.183445,0.206375 q -0.155927,-0.128412 -0.325614,-0.197203 -0.1651,-0.07338 -0.394405,-0.07338 -0.417336,0 -0.646642,0.261408 -0.229305,0.261409 -0.229305,0.724606 v 0.84843 q 0,0.440267 0.215547,0.683331 0.220133,0.243064 0.632883,0.243064 0.233892,0 0.41275,-0.06879 0.178859,-0.06879 0.334786,-0.18803 l 0.151342,0.220133 q -0.169686,0.137583 -0.398992,0.229305 -0.224719,0.08714 -0.504472,0.08714 z"
         style="font-style:normal;font-variant:normal;font-weight:normal;font-stretch:normal;font-size:4.58611107px;font-family:'Artifakt Element';-inkscape-font-specification:'Artifakt Element';letter-spacing:0.52916676px;stroke-width:0.26458332"
         id="path4864" />
      <path
         d="m 38.487408,42.260073 h -0.958497 v 2.925939 h -0.343959 v -2.925939 h -0.953911 v -0.284338 h 2.256367 z"
         style="font-style:normal;font-variant:normal;font-weight:normal;font-stretch:normal;font-size:4.58611107px;font-family:'Artifakt Element';-inkscape-font-specification:'Artifakt Element';letter-spacing:0.52916676px;stroke-width:0.26458332"
         id="path4866" />
    </g>
    <g
       aria-label="FXTRACT"
       style="font-style:normal;font-variant:normal;font-weight:bold;font-stretch:normal;font-size:10.58333302px;line-height:1.25;font-family:'Artifakt Element';-inkscape-font-specification:'Artifakt Element Bold';letter-spacing:0px;word-spacing:0px;fill:#000000;fill-opacity:1;stroke:none;stroke-width:0.26458332"
       id="text4873">
      <path
         d="m 44.009584,24.189949 v -0.444853 h -1.348316 -0.57785 v 3.210278 h 0.57785 v -1.366661 h 1.1557 V 25.14386 h -1.1557 v -0.953911 z"
         style="font-style:normal;font-variant:normal;font-weight:bold;font-stretch:normal;font-family:'Artifakt Element';-inkscape-font-specification:'Artifakt Element Bold'"
         id="path4875"
         inkscape:connector-curvature="0" />
      <path
         d="m 45.52503,25.361373 0.963083,-1.458383 h -0.623711 l -0.692503,1.114425 h -0.0046 l -0.429744,-0.592162 -0.521746,0.14977 0.584615,0.827625 -0.430916,0.757186 0.376577,0.396617 0.416642,-0.773155 0.779639,1.570444 0.655814,-0.0086 z"
         style="font-style:normal;font-variant:normal;font-weight:bold;font-stretch:normal;font-family:'Artifakt Element';-inkscape-font-specification:'Artifakt Element Bold'"
         id="path4877"
         inkscape:connector-curvature="0"
         sodipodi:nodetypes="cccccccccccccc" />
      <path
         d="m 49.5936,23.90299 h -0.898878 -1.481314 v 0.444853 h 0.903464 v 2.765425 h 0.57785 V 24.347843 H 49.5936 Z"
         style="font-style:normal;font-variant:normal;font-weight:bold;font-stretch:normal;font-family:'Artifakt Element';-inkscape-font-specification:'Artifakt Element Bold'"
         id="path4879" />
      <path
         d="m 52.538859,27.113268 -0.733778,-1.362075 q -0.02752,0.0046 -0.09172,0.0046 h -0.609953 v 1.357489 H 50.759448 V 23.90299 h 0.944739 q 0.499886,0 0.793397,0.22472 0.298097,0.220133 0.298097,0.60078 v 0.210961 q 0,0.275167 -0.174272,0.47237 -0.169686,0.197202 -0.472369,0.279752 l 0.770466,1.421695 z m -0.830086,-1.637242 q 0.348544,0 0.541161,-0.142169 0.197203,-0.14217 0.197203,-0.403578 v -0.192617 q 0,-0.261408 -0.201789,-0.408164 -0.201789,-0.146755 -0.545747,-0.146755 h -0.596195 v 1.293283 z"
         style="font-style:normal;font-variant:normal;font-weight:normal;font-stretch:normal;font-size:4.58611107px;font-family:'Artifakt Element';-inkscape-font-specification:'Artifakt Element';letter-spacing:0.52916676px;stroke-width:0.26458332"
         id="path4881" />
      <path
         d="M 55.797908,26.122668 H 54.5459 l -0.311855,0.9906 h -0.353131 l 1.05022,-3.210278 h 0.472369 l 1.082322,3.210278 h -0.357717 z m -1.164872,-0.284339 h 1.07315 l -0.541161,-1.683103 z"
         style="font-style:normal;font-variant:normal;font-weight:normal;font-stretch:normal;font-size:4.58611107px;font-family:'Artifakt Element';-inkscape-font-specification:'Artifakt Element';letter-spacing:0.52916676px;stroke-width:0.26458332"
         id="path4883" />
      <path
         d="m 58.679965,27.168301 q -0.564091,0 -0.875947,-0.325614 -0.311856,-0.325614 -0.311856,-0.871361 v -0.84843 q 0,-0.385234 0.14217,-0.669573 0.146755,-0.288925 0.417336,-0.444852 0.275167,-0.160514 0.651228,-0.160514 0.298097,0 0.509058,0.09172 0.215547,0.08714 0.403578,0.252236 l -0.183445,0.206375 q -0.155927,-0.128411 -0.325613,-0.197203 -0.1651,-0.07338 -0.394406,-0.07338 -0.417336,0 -0.646642,0.261408 -0.229305,0.261408 -0.229305,0.724605 v 0.848431 q 0,0.440267 0.215547,0.683331 0.220133,0.243063 0.632883,0.243063 0.233892,0 0.41275,-0.06879 0.178859,-0.06879 0.334786,-0.188031 l 0.151342,0.220134 q -0.169686,0.137583 -0.398992,0.229305 -0.224719,0.08714 -0.504472,0.08714 z"
         style="font-style:normal;font-variant:normal;font-weight:normal;font-stretch:normal;font-size:4.58611107px;font-family:'Artifakt Element';-inkscape-font-specification:'Artifakt Element';letter-spacing:0.52916676px;stroke-width:0.26458332"
         id="path4885" />
      <path
         d="m 62.672003,24.187329 h -0.958497 v 2.925939 H 61.369548 V 24.187329 H 60.415636 V 23.90299 h 2.256367 z"
         style="font-style:normal;font-variant:normal;font-weight:normal;font-stretch:normal;font-size:4.58611107px;font-family:'Artifakt Element';-inkscape-font-specification:'Artifakt Element';letter-spacing:0.52916676px;stroke-width:0.26458332"
         id="path4887" />
      <path
         style="font-style:normal;font-weight:normal;font-size:4.93888903px;line-height:1.25;font-family:sans-serif;letter-spacing:0px;word-spacing:0px;fill:none;fill-opacity:1;stroke:none;stroke-width:0.26458332"
         d="M 166.23967 102.31955 C 165.79694 102.42083 165.32078 102.47147 164.81118 102.47147 C 163.13757 102.47147 161.82507 101.9298 160.87368 100.84647 C 159.92923 99.75619 159.45701 98.25619 159.45701 96.346467 C 159.45701 94.429801 159.92923 92.929801 160.87368 91.846467 C 161.82507 90.763134 163.13757 90.221467 164.81118 90.221467 L 164.81118 90.221467 C 165.32078 90.221467 165.79694 90.272107 166.23967 90.373386 "
         id="path4919"
         transform="scale(0.26458333)" />
      <path
         style="font-style:normal;font-weight:normal;font-size:4.93888903px;line-height:1.25;font-family:sans-serif;letter-spacing:0px;word-spacing:0px;fill:none;fill-opacity:1;stroke:none;stroke-width:0.26458332"
         d="M 166.23967 90.373386 C 167.2449 90.603346 168.07777 91.094373 168.73826 91.846467 C 169.68965 92.929801 170.16535 94.429801 170.16535 96.346467 C 170.16535 98.25619 169.68965 99.75619 168.73826 100.84647 C 168.07777 101.59856 167.2449 102.08959 166.23967 102.31955 "
         id="path4917"
         transform="scale(0.26458333)" />
      <path
         style="font-style:normal;font-weight:normal;font-size:4.93888903px;line-height:1.25;font-family:sans-serif;letter-spacing:0px;word-spacing:0px;fill:none;fill-opacity:1;stroke:none;stroke-width:0.26458332"
         d="M 166.17662 92.147677 C 165.77382 91.946871 165.31867 91.846467 164.81118 91.846467 C 163.7834 91.846467 162.9709 92.249245 162.37368 93.054801 C 161.77646 93.853412 161.47785 94.950634 161.47785 96.346467 C 161.47785 97.742301 161.77298 98.842995 162.36326 99.648551 C 162.96048 100.44716 163.77646 100.84647 164.81118 100.84647 C 165.31867 100.84647 165.77382 100.74692 166.17662 100.54783 "
         id="path4915"
         transform="scale(0.26458333)" />
      <path
         style="font-style:normal;font-weight:normal;font-size:4.93888903px;line-height:1.25;font-family:sans-serif;letter-spacing:0px;word-spacing:0px;fill:none;fill-opacity:1;stroke:none;stroke-width:0.26458332"
         d="M 166.17662 100.54783 C 166.58406 100.34645 166.93794 100.04322 167.23826 99.638134 C 167.83548 98.832579 168.1341 97.735356 168.1341 96.346467 C 168.1341 94.964523 167.83548 93.870773 167.23826 93.065217 C 166.93794 92.656642 166.58406 92.350795 166.17662 92.147677 "
         id="text4892"
         transform="scale(0.26458333)" />
      <path
         inkscape:connector-curvature="0"
         id="path4894"
         style="font-style:normal;font-variant:normal;font-weight:bold;font-stretch:normal;font-family:'Artifakt Element';-inkscape-font-specification:'Artifakt Element Bold'"
         d="M 41.892916,13.471776 V 13.026923 H 40.5446 39.96675 v 3.210278 H 40.5446 V 14.87054 h 1.1557 v -0.444853 h -1.1557 v -0.953911 z" />
      <path
         sodipodi:nodetypes="cccccccccccccc"
         inkscape:connector-curvature="0"
         id="path4896"
         style="font-style:normal;font-variant:normal;font-weight:bold;font-stretch:normal;font-family:'Artifakt Element';-inkscape-font-specification:'Artifakt Element Bold'"
         d="m 45.52503,14.6432 0.963083,-1.458383 h -0.623711 l -0.692503,1.114425 h -0.0046 l -0.429744,-0.592162 -0.521746,0.14977 0.584615,0.827625 -0.430916,0.757186 0.376577,0.396617 0.416642,-0.773155 0.779639,1.570444 0.655814,-0.0086 z" />
      <path
         id="path4898"
         style="font-style:normal;font-variant:normal;font-weight:bold;font-stretch:normal;font-family:'Artifakt Element';-inkscape-font-specification:'Artifakt Element Bold'"
         d="m 49.5936,13.184817 h -0.898878 -1.481314 v 0.444853 h 0.903464 v 2.765425 h 0.57785 V 13.62967 H 49.5936 Z"
         inkscape:connector-curvature="0" />
      <path
         id="path4900"
         style="font-style:normal;font-variant:normal;font-weight:normal;font-stretch:normal;font-size:4.58611107px;font-family:'Artifakt Element';-inkscape-font-specification:'Artifakt Element';letter-spacing:0.52916676px;stroke-width:0.26458332"
         d="M 52.538859,16.395095 51.805081,15.03302 q -0.02752,0.0046 -0.09172,0.0046 h -0.609953 v 1.357489 h -0.34396 v -3.210292 h 0.944739 q 0.499886,0 0.793397,0.22472 0.298097,0.220133 0.298097,0.60078 v 0.210961 q 0,0.275167 -0.174272,0.47237 -0.169686,0.197202 -0.472369,0.279752 l 0.770466,1.421695 z m -0.830086,-1.637242 q 0.348544,0 0.541161,-0.142169 0.197203,-0.14217 0.197203,-0.403578 v -0.192617 q 0,-0.261408 -0.201789,-0.408164 -0.201789,-0.146755 -0.545747,-0.146755 h -0.596195 v 1.293283 z"
         inkscape:connector-curvature="0" />
      <path
         id="path4902"
         style="font-style:normal;font-variant:normal;font-weight:normal;font-stretch:normal;font-size:4.58611107px;font-family:'Artifakt Element';-inkscape-font-specification:'Artifakt Element';letter-spacing:0.52916676px;stroke-width:0.26458332"
         d="M 55.797908,15.404495 H 54.5459 l -0.311855,0.9906 h -0.353131 l 1.05022,-3.210278 h 0.472369 l 1.082322,3.210278 h -0.357717 z m -1.164872,-0.284339 h 1.07315 l -0.541161,-1.683103 z"
         inkscape:connector-curvature="0" />
      <path
         id="path4904"
         style="font-style:normal;font-variant:normal;font-weight:normal;font-stretch:normal;font-size:4.58611107px;font-family:'Artifakt Element';-inkscape-font-specification:'Artifakt Element';letter-spacing:0.52916676px;stroke-width:0.26458332"
         d="m 58.679965,16.450128 q -0.564091,0 -0.875947,-0.325614 -0.311856,-0.325614 -0.311856,-0.871361 v -0.84843 q 0,-0.385234 0.14217,-0.669573 0.146755,-0.288925 0.417336,-0.444852 0.275167,-0.160514 0.651228,-0.160514 0.298097,0 0.509058,0.09172 0.215547,0.08714 0.403578,0.252236 l -0.183445,0.206375 q -0.155927,-0.128411 -0.325613,-0.197203 -0.1651,-0.07338 -0.394406,-0.07338 -0.417336,0 -0.646642,0.261408 -0.229305,0.261408 -0.229305,0.724605 v 0.848431 q 0,0.440267 0.215547,0.683331 0.220133,0.243063 0.632883,0.243063 0.233892,0 0.41275,-0.06879 0.178859,-0.06879 0.334786,-0.188031 l 0.151342,0.220134 q -0.169686,0.137583 -0.398992,0.229305 -0.224719,0.08714 -0.504472,0.08714 z"
         inkscape:connector-curvature="0" />
      <path
         id="path4906"
         style="font-style:normal;font-variant:normal;font-weight:normal;font-stretch:normal;font-size:4.58611107px;font-family:'Artifakt Element';-inkscape-font-specification:'Artifakt Element';letter-spacing:0.52916676px;stroke-width:0.26458332"
         d="m 62.672003,13.469156 h -0.958497 v 2.925939 h -0.343958 v -2.925939 h -0.953912 v -0.284339 h 2.256367 z"
         inkscape:connector-curvature="0" />
      <text
         id="text4910"
         y="16.314144"
         x="41.878231"
         style="font-style:normal;font-weight:normal;font-size:4.93888903px;line-height:1.25;font-family:sans-serif;letter-spacing:0px;word-spacing:0px;fill:#000000;fill-opacity:1;stroke:none;stroke-width:0.07000434"
         xml:space="preserve"><tspan
           style="font-size:5.64444447px;stroke-width:0.07000434"
           y="16.314144"
           x="41.878231"
           id="tspan4908"
           sodipodi:role="line">o</tspan></text>
      <path
         d="m 15.51254,13.471776 v -0.444853 h -1.348316 -0.57785 v 3.210278 h 0.57785 V 14.87054 h 1.1557 v -0.444853 h -1.1557 v -0.953911 z"
         style="font-style:normal;font-variant:normal;font-weight:bold;font-stretch:normal;font-family:'Artifakt Element';-inkscape-font-specification:'Artifakt Element Bold'"
         id="path4921"
         inkscape:connector-curvature="0" />
      <path
         d="m 19.144654,14.6432 0.963083,-1.458383 h -0.623711 l -0.692503,1.114425 h -0.0046 l -0.429744,-0.592162 -0.521746,0.14977 0.584615,0.827625 -0.430916,0.757186 0.376577,0.396617 0.416642,-0.773155 0.779639,1.570444 0.655814,-0.0086 z"
         style="font-style:normal;font-variant:normal;font-weight:bold;font-stretch:normal;font-family:'Artifakt Element';-inkscape-font-specification:'Artifakt Element Bold'"
         id="path4923"
         inkscape:connector-curvature="0"
         sodipodi:nodetypes="cccccccccccccc" />
      <path
         inkscape:connector-curvature="0"
         d="m 23.213224,13.184817 h -0.898878 -1.481314 v 0.444853 h 0.903464 v 2.765425 h 0.57785 V 13.62967 h 0.898878 z"
         style="font-style:normal;font-variant:normal;font-weight:bold;font-stretch:normal;font-family:'Artifakt Element';-inkscape-font-specification:'Artifakt Element Bold'"
         id="path4925" />
      <path
         inkscape:connector-curvature="0"
         d="M 26.158483,16.395095 25.424705,15.03302 q -0.02752,0.0046 -0.09172,0.0046 h -0.609953 v 1.357489 h -0.34396 v -3.210292 h 0.944739 q 0.499886,0 0.793397,0.22472 0.298097,0.220133 0.298097,0.60078 v 0.210961 q 0,0.275167 -0.174272,0.47237 -0.169686,0.197202 -0.472369,0.279752 l 0.770466,1.421695 z m -0.830086,-1.637242 q 0.348544,0 0.541161,-0.142169 0.197203,-0.14217 0.197203,-0.403578 v -0.192617 q 0,-0.261408 -0.201789,-0.408164 Q 25.663183,13.46457 25.319225,13.46457 H 24.72303 v 1.293283 z"
         style="font-style:normal;font-variant:normal;font-weight:normal;font-stretch:normal;font-size:4.58611107px;font-family:'Artifakt Element';-inkscape-font-specification:'Artifakt Element';letter-spacing:0.52916676px;stroke-width:0.26458332"
         id="path4927" />
      <path
         inkscape:connector-curvature="0"
         d="m 29.417532,15.404495 h -1.252008 l -0.311855,0.9906 h -0.353131 l 1.05022,-3.210278 h 0.472369 l 1.082322,3.210278 H 29.747732 Z M 28.25266,15.120156 h 1.07315 l -0.541161,-1.683103 z"
         style="font-style:normal;font-variant:normal;font-weight:normal;font-stretch:normal;font-size:4.58611107px;font-family:'Artifakt Element';-inkscape-font-specification:'Artifakt Element';letter-spacing:0.52916676px;stroke-width:0.26458332"
         id="path4929" />
      <path
         inkscape:connector-curvature="0"
         d="m 32.299589,16.450128 q -0.564091,0 -0.875947,-0.325614 -0.311856,-0.325614 -0.311856,-0.871361 v -0.84843 q 0,-0.385234 0.14217,-0.669573 0.146755,-0.288925 0.417336,-0.444852 0.275167,-0.160514 0.651228,-0.160514 0.298097,0 0.509058,0.09172 0.215547,0.08714 0.403578,0.252236 l -0.183445,0.206375 q -0.155927,-0.128411 -0.325613,-0.197203 -0.1651,-0.07338 -0.394406,-0.07338 -0.417336,0 -0.646642,0.261408 -0.229305,0.261408 -0.229305,0.724605 v 0.848431 q 0,0.440267 0.215547,0.683331 0.220133,0.243063 0.632883,0.243063 0.233892,0 0.41275,-0.06879 0.178859,-0.06879 0.334786,-0.188031 l 0.151342,0.220134 q -0.169686,0.137583 -0.398992,0.229305 -0.224719,0.08714 -0.504472,0.08714 z"
         style="font-style:normal;font-variant:normal;font-weight:normal;font-stretch:normal;font-size:4.58611107px;font-family:'Artifakt Element';-inkscape-font-specification:'Artifakt Element';letter-spacing:0.52916676px;stroke-width:0.26458332"
         id="path4931" />
      <text
         xml:space="preserve"
         style="font-style:normal;font-weight:normal;font-size:4.93888903px;line-height:1.25;font-family:sans-serif;letter-spacing:0px;word-spacing:0px;fill:#000000;fill-opacity:1;stroke:none;stroke-width:0.07000434"
         x="15.497855"
         y="16.314144"
         id="text4935"><tspan
           sodipodi:role="line"
           id="tspan4933"
           x="15.497855"
           y="16.314144"
           style="font-size:5.64444447px;stroke-width:0.07000434">o</tspan></text>
      <rect
         style="fill:#000000;fill-opacity:1;stroke-width:0.07000434"
         id="rect4937"
         width="2.3076756"
         height="5.0040126"
         x="14.866289"
         y="12.184245" />
    </g>
  </g>
</svg>
