<?xml version="1.0" encoding="UTF-8" standalone="no"?>
<!-- Created with Inkscape (http://www.inkscape.org/) -->

<svg
   xmlns:dc="http://purl.org/dc/elements/1.1/"
   xmlns:cc="http://creativecommons.org/ns#"
   xmlns:rdf="http://www.w3.org/1999/02/22-rdf-syntax-ns#"
   xmlns:svg="http://www.w3.org/2000/svg"
   xmlns="http://www.w3.org/2000/svg"
   xmlns:sodipodi="http://sodipodi.sourceforge.net/DTD/sodipodi-0.dtd"
   xmlns:inkscape="http://www.inkscape.org/namespaces/inkscape"
   width="210mm"
   height="297mm"
   viewBox="0 0 210 297"
   version="1.1"
   id="svg8"
   inkscape:version="0.92.3 (2405546, 2018-03-11)"
   sodipodi:docname="fxtract.svg">
  <defs
     id="defs2" />
  <sodipodi:namedview
     id="base"
     pagecolor="#ffffff"
     bordercolor="#666666"
     borderopacity="1.0"
     inkscape:pageopacity="0.0"
     inkscape:pageshadow="2"
     inkscape:zoom="1.6452166"
     inkscape:cx="332.41713"
     inkscape:cy="949.52738"
     inkscape:document-units="mm"
     inkscape:current-layer="g68"
     showgrid="false"
     inkscape:window-width="1920"
     inkscape:window-height="1016"
     inkscape:window-x="0"
     inkscape:window-y="27"
     inkscape:window-maximized="1"
     showguides="true"
     inkscape:guide-bbox="true">
    <sodipodi:guide
       position="144.21142,270.60143"
       orientation="0,1"
       id="guide132"
       inkscape:locked="false" />
    <sodipodi:guide
       position="143.96539,276.10425"
       orientation="0,1"
       id="guide134"
       inkscape:locked="false" />
  </sodipodi:namedview>
  <metadata
     id="metadata5">
    <rdf:RDF>
      <cc:Work
         rdf:about="">
        <dc:format>image/svg+xml</dc:format>
        <dc:type
           rdf:resource="http://purl.org/dc/dcmitype/StillImage" />
        <dc:title />
      </cc:Work>
    </rdf:RDF>
  </metadata>
  <g
     inkscape:label="Layer 1"
     inkscape:groupmode="layer"
     id="layer1">
    <text
       xml:space="preserve"
       style="font-style:normal;font-variant:normal;font-weight:bold;font-stretch:normal;font-size:10.58333302px;line-height:1.25;font-family:'Artifakt Element';-inkscape-font-specification:'Artifakt Element Bold';letter-spacing:0px;word-spacing:0px;fill:#000000;fill-opacity:1;stroke:none;stroke-width:0.26458332"
       x="40.443455"
       y="67.568451"
       id="text12"><tspan
         sodipodi:role="line"
         id="tspan10"
         x="40.443455"
         y="67.568451"
         style="font-size:4.58611107px;stroke-width:0.26458332;letter-spacing:0.52916667px"
         dx="0">FXTRACT</tspan></text>
    <rect
       id="rect17"
       width="1.9150351"
       height="0.087982088"
       x="68.042442"
       y="36.031765"
       style="fill:#4caf50;fill-opacity:1;stroke-width:0.14136797"
       transform="rotate(30)" />
    <text
       id="text25"
       y="59.158482"
       x="40.443455"
       style="font-style:normal;font-variant:normal;font-weight:bold;font-stretch:normal;font-size:10.58333302px;line-height:1.25;font-family:'Artifakt Element';-inkscape-font-specification:'Artifakt Element Bold';letter-spacing:0px;word-spacing:0px;fill:#000000;fill-opacity:1;stroke:none;stroke-width:0.26458332"
       xml:space="preserve"><tspan
         dx="0"
         style="font-size:4.58611107px;letter-spacing:0.5291667px;stroke-width:0.26458332"
         y="59.158482"
         x="40.443455"
         id="tspan23"
         sodipodi:role="line">FXTRACT</tspan></text>
    <text
       id="text25-3"
       y="52.468872"
       x="40.671734"
       style="font-style:normal;font-variant:normal;font-weight:bold;font-stretch:normal;font-size:10.58333302px;line-height:1.25;font-family:'Artifakt Element';-inkscape-font-specification:'Artifakt Element Bold';letter-spacing:0px;word-spacing:0px;fill:#000000;fill-opacity:1;stroke:none;stroke-width:0.26458332"
       xml:space="preserve"><tspan
         dx="0"
         style="font-style:normal;font-variant:normal;font-weight:normal;font-stretch:normal;font-size:4.58611107px;font-family:'Artifakt Element';-inkscape-font-specification:'Artifakt Element';letter-spacing:0.52916676px;stroke-width:0.26458332"
         y="52.468872"
         x="40.671734"
         id="tspan23-6"
         sodipodi:role="line">FXTRACT</tspan></text>
    <text
       id="text25-3-7"
       y="51.966652"
       x="69.042633"
       style="font-style:normal;font-variant:normal;font-weight:bold;font-stretch:normal;font-size:10.58333302px;line-height:1.25;font-family:'Artifakt Element';-inkscape-font-specification:'Artifakt Element Bold';letter-spacing:0px;word-spacing:0px;fill:#000000;fill-opacity:1;stroke:none;stroke-width:0.26458332"
       xml:space="preserve"><tspan
         dx="0"
         style="font-style:normal;font-variant:normal;font-weight:bold;font-stretch:normal;font-size:4.58611107px;font-family:Overpass;-inkscape-font-specification:'Overpass Bold';letter-spacing:0.52916682px;stroke-width:0.26458332"
         y="51.966652"
         x="69.042633"
         id="tspan23-6-5"
         sodipodi:role="line">FXTRACT</tspan></text>
    <text
       xml:space="preserve"
       style="font-style:normal;font-weight:normal;font-size:10.58333302px;line-height:1.25;font-family:sans-serif;letter-spacing:0px;word-spacing:0px;fill:#000000;fill-opacity:1;stroke:none;stroke-width:0.26458332"
       x="81.831841"
       y="54.244789"
       id="text65"><tspan
         sodipodi:role="line"
         id="tspan63"
         x="81.831841"
         y="63.608559"
         style="stroke-width:0.26458332" /></text>
    <text
       id="text25-3-7-9"
       y="60.149414"
       x="69.114052"
       style="font-style:normal;font-variant:normal;font-weight:bold;font-stretch:normal;font-size:10.58333302px;line-height:1.25;font-family:'Artifakt Element';-inkscape-font-specification:'Artifakt Element Bold';letter-spacing:0px;word-spacing:0px;fill:#000000;fill-opacity:1;stroke:none;stroke-width:0.26458332"
       xml:space="preserve"><tspan
         dx="0"
         style="font-style:normal;font-variant:normal;font-weight:800;font-stretch:normal;font-size:4.58611107px;font-family:Overpass;-inkscape-font-specification:'Overpass Ultra-Bold';letter-spacing:0.52916682px;stroke-width:0.26458332"
         y="60.149414"
         x="69.114052"
         id="tspan23-6-5-6"
         sodipodi:role="line">FXTRACT</tspan></text>
    <text
       xml:space="preserve"
       style="font-style:normal;font-variant:normal;font-weight:bold;font-stretch:normal;font-size:10.58333302px;line-height:1.25;font-family:'Artifakt Element';-inkscape-font-specification:'Artifakt Element Bold';letter-spacing:0px;word-spacing:0px;fill:#4caf50;fill-opacity:1;stroke:none;stroke-width:0.26458332;"
       x="40.443455"
       y="74.324776"
       id="text87"><tspan
         sodipodi:role="line"
         id="tspan85"
         x="40.443455"
         y="74.324776"
         style="font-size:4.58611107px;letter-spacing:0.5291667px;stroke-width:0.26458332;fill:#4caf50;fill-opacity:1;"
         dx="0">FXTRACT</tspan></text>
    <text
       xml:space="preserve"
       style="font-style:normal;font-variant:normal;font-weight:bold;font-stretch:normal;font-size:10.58333302px;line-height:1.25;font-family:'Artifakt Element';-inkscape-font-specification:'Artifakt Element Bold';letter-spacing:0px;word-spacing:0px;fill:#000000;fill-opacity:1;stroke:none;stroke-width:0.26458332"
       x="40.671734"
       y="45.186012"
       id="text4599"><tspan
         sodipodi:role="line"
         id="tspan4597"
         x="40.671734"
         y="45.186012"
         style="font-style:normal;font-variant:normal;font-weight:normal;font-stretch:normal;font-size:4.58611107px;font-family:'Artifakt Element';-inkscape-font-specification:'Artifakt Element';letter-spacing:0.52916676px;stroke-width:0.26458332"
         dx="0"><tspan
   style="font-style:normal;font-variant:normal;font-weight:bold;font-stretch:normal;font-family:'Artifakt Element';-inkscape-font-specification:'Artifakt Element Bold'"
   id="tspan4601">FXT</tspan>RACT</tspan></text>
    <text
       xml:space="preserve"
       style="font-style:normal;font-variant:normal;font-weight:bold;font-stretch:normal;font-size:10.58333302px;line-height:1.25;font-family:'Artifakt Element';-inkscape-font-specification:'Artifakt Element Bold';letter-spacing:0px;word-spacing:0px;fill:#000000;fill-opacity:1;stroke:none;stroke-width:0.26458332"
       x="70.215416"
       y="43.880592"
       id="text4605"><tspan
         sodipodi:role="line"
         id="tspan4603"
         x="70.215416"
         y="43.880592"
         style="font-style:normal;font-variant:normal;font-weight:normal;font-stretch:normal;font-size:4.58611107px;font-family:Overpass;-inkscape-font-specification:Overpass;letter-spacing:0.52916676px;stroke-width:0.26458332"
         dx="0">FXTRACT</tspan></text>
    <text
       id="text4609"
       y="74.317451"
       x="69.871887"
       style="font-style:normal;font-variant:normal;font-weight:bold;font-stretch:normal;font-size:10.58333302px;line-height:1.25;font-family:'Artifakt Element';-inkscape-font-specification:'Artifakt Element Bold';letter-spacing:0px;word-spacing:0px;fill:#4caf50;fill-opacity:1;stroke:none;stroke-width:0.26458332;"
       xml:space="preserve"
       inkscape:export-xdpi="96"
       inkscape:export-ydpi="96"><tspan
         dx="0"
         style="font-style:normal;font-variant:normal;font-weight:300;font-stretch:normal;font-size:4.58611107px;font-family:'Open Sans';-inkscape-font-specification:'Open Sans Light';letter-spacing:0.52916676px;stroke-width:0.26458332;fill:#4caf50;fill-opacity:1;"
         y="74.317451"
         x="69.871887"
         id="tspan4607"
         sodipodi:role="line">FXTRACT</tspan></text>
    <text
       xml:space="preserve"
       style="font-style:normal;font-variant:normal;font-weight:bold;font-stretch:normal;font-size:10.58333302px;line-height:1.25;font-family:'Artifakt Element';-inkscape-font-specification:'Artifakt Element Bold';letter-spacing:0px;word-spacing:0px;fill:#000000;fill-opacity:1;stroke:none;stroke-width:0.26458332"
       x="94.193893"
       y="74.317451"
       id="text4613"><tspan
         sodipodi:role="line"
         id="tspan4611"
         x="94.193893"
         y="74.317451"
         style="font-style:normal;font-variant:normal;font-weight:300;font-stretch:normal;font-size:4.58611107px;font-family:'Open Sans';-inkscape-font-specification:'Open Sans Light';letter-spacing:0.52916676px;stroke-width:0.26458332"
         dx="0">FXTRACT</tspan></text>
    <text
       id="text4754"
       y="80.989281"
       x="40.443455"
       style="font-style:normal;font-variant:normal;font-weight:bold;font-stretch:normal;font-size:10.58333302px;line-height:1.25;font-family:'Artifakt Element';-inkscape-font-specification:'Artifakt Element Bold';letter-spacing:0px;word-spacing:0px;fill:#4caf50;fill-opacity:1;stroke:none;stroke-width:0.26458332"
       xml:space="preserve"><tspan
         dx="0"
         style="font-size:4.58611107px;letter-spacing:0.5291667px;fill:#4caf50;fill-opacity:1;stroke-width:0.26458332;-inkscape-font-specification:'Open Sans Medium';font-family:'Open Sans';font-weight:500;font-style:normal;font-stretch:normal;font-variant:normal"
         y="80.989281"
         x="40.443455"
         id="tspan4752"
         sodipodi:role="line">FXTRACT</tspan></text>
    <text
       xml:space="preserve"
       style="font-style:normal;font-variant:normal;font-weight:bold;font-stretch:normal;font-size:10.58333302px;line-height:1.25;font-family:'Artifakt Element';-inkscape-font-specification:'Artifakt Element Bold';letter-spacing:0px;word-spacing:0px;fill:#000000;fill-opacity:1;stroke:none;stroke-width:0.26458332;"
       x="67.307594"
       y="80.989281"
       id="text4758"><tspan
         sodipodi:role="line"
         id="tspan4756"
         x="67.307594"
         y="80.989281"
         style="font-style:normal;font-variant:normal;font-weight:500;font-stretch:normal;font-size:4.58611107px;font-family:'Open Sans';-inkscape-font-specification:'Open Sans Medium';letter-spacing:0.5291667px;fill:#000000;fill-opacity:1;stroke-width:0.26458332;"
         dx="0">FXTRACT</tspan></text>
    <g
       aria-label="FXTRACT"
       style="font-style:normal;font-variant:normal;font-weight:bold;font-stretch:normal;font-size:10.58333302px;line-height:1.25;font-family:'Artifakt Element';-inkscape-font-specification:'Artifakt Element Bold';letter-spacing:0px;word-spacing:0px;fill:#000000;fill-opacity:1;stroke:none;stroke-width:0.26458332"
       id="text4852">
      <path
         d="M 18.894847,42.420587 V 41.975735 H 17.54653 16.96868 v 3.210277 h 0.57785 v -1.366661 h 1.1557 v -0.444853 h -1.1557 v -0.953911 z"
         style="font-style:normal;font-variant:normal;font-weight:bold;font-stretch:normal;font-family:'Artifakt Element';-inkscape-font-specification:'Artifakt Element Bold'"
         id="path4854" />
      <path
         d="m 21.340435,43.434118 0.963083,-1.458383 h -0.623711 l -0.692503,1.114425 h -0.0046 L 20.30396,41.975735 h -0.642056 l 0.953911,1.499658 -6.719652,3.617217 6.293144,-1.906598 0.788811,-1.329972 0.779639,1.329972 h 0.655814 z"
         style="font-style:normal;font-variant:normal;font-weight:bold;font-stretch:normal;font-family:'Artifakt Element';-inkscape-font-specification:'Artifakt Element Bold'"
         id="path4856"
         inkscape:connector-curvature="0"
         sodipodi:nodetypes="cccccccccccccc" />
      <path
         d="m 25.409004,41.975735 h -0.898877 -1.481314 v 0.444852 h 0.903464 v 2.765425 h 0.57785 v -2.765425 h 0.898877 z"
         style="font-style:normal;font-variant:normal;font-weight:bold;font-stretch:normal;font-family:'Artifakt Element';-inkscape-font-specification:'Artifakt Element Bold'"
         id="path4858" />
      <path
         d="m 28.354264,45.186012 -0.733778,-1.362075 q -0.02752,0.0046 -0.09172,0.0046 h -0.609953 v 1.357489 h -0.343958 v -3.210277 h 0.944739 q 0.499886,0 0.793397,0.224719 0.298097,0.220133 0.298097,0.600781 v 0.210961 q 0,0.275166 -0.174272,0.472369 -0.169686,0.197203 -0.472369,0.279753 l 0.770466,1.421694 z m -0.830086,-1.637241 q 0.348544,0 0.541161,-0.14217 0.197203,-0.142169 0.197203,-0.403578 v -0.192616 q 0,-0.261409 -0.201789,-0.408164 -0.201789,-0.146756 -0.545747,-0.146756 h -0.596195 v 1.293284 z"
         style="font-style:normal;font-variant:normal;font-weight:normal;font-stretch:normal;font-size:4.58611107px;font-family:'Artifakt Element';-inkscape-font-specification:'Artifakt Element';letter-spacing:0.52916676px;stroke-width:0.26458332"
         id="path4860" />
      <path
         d="m 31.613313,44.195412 h -1.252008 l -0.311855,0.9906 h -0.353131 l 1.050219,-3.210277 h 0.47237 l 1.082322,3.210277 h -0.357717 z m -1.164872,-0.284339 h 1.07315 L 30.98043,42.227971 Z"
         style="font-style:normal;font-variant:normal;font-weight:normal;font-stretch:normal;font-size:4.58611107px;font-family:'Artifakt Element';-inkscape-font-specification:'Artifakt Element';letter-spacing:0.52916676px;stroke-width:0.26458332"
         id="path4862" />
      <path
         d="m 34.49537,45.241046 q -0.564092,0 -0.875947,-0.325614 -0.311856,-0.325614 -0.311856,-0.871361 V 43.19564 q 0,-0.385233 0.14217,-0.669572 0.146755,-0.288925 0.417336,-0.444853 0.275167,-0.160514 0.651228,-0.160514 0.298097,0 0.509058,0.09172 0.215547,0.08714 0.403578,0.252237 l -0.183445,0.206375 q -0.155927,-0.128412 -0.325614,-0.197203 -0.1651,-0.07338 -0.394405,-0.07338 -0.417336,0 -0.646642,0.261408 -0.229305,0.261409 -0.229305,0.724606 v 0.84843 q 0,0.440267 0.215547,0.683331 0.220133,0.243064 0.632883,0.243064 0.233892,0 0.41275,-0.06879 0.178859,-0.06879 0.334786,-0.18803 l 0.151342,0.220133 q -0.169686,0.137583 -0.398992,0.229305 -0.224719,0.08714 -0.504472,0.08714 z"
         style="font-style:normal;font-variant:normal;font-weight:normal;font-stretch:normal;font-size:4.58611107px;font-family:'Artifakt Element';-inkscape-font-specification:'Artifakt Element';letter-spacing:0.52916676px;stroke-width:0.26458332"
         id="path4864" />
      <path
         d="m 38.487408,42.260073 h -0.958497 v 2.925939 h -0.343959 v -2.925939 h -0.953911 v -0.284338 h 2.256367 z"
         style="font-style:normal;font-variant:normal;font-weight:normal;font-stretch:normal;font-size:4.58611107px;font-family:'Artifakt Element';-inkscape-font-specification:'Artifakt Element';letter-spacing:0.52916676px;stroke-width:0.26458332"
         id="path4866" />
    </g>
    <text
       id="text4873"
       y="27.113268"
       x="40.671734"
       style="font-style:normal;font-variant:normal;font-weight:bold;font-stretch:normal;font-size:10.58333302px;line-height:1.25;font-family:'Artifakt Element';-inkscape-font-specification:'Artifakt Element Bold';letter-spacing:0px;word-spacing:0px;fill:#000000;fill-opacity:1;stroke:none;stroke-width:0.26458332"
       xml:space="preserve"><tspan
         dx="0"
         style="font-style:normal;font-variant:normal;font-weight:normal;font-stretch:normal;font-size:4.58611107px;font-family:'Artifakt Element';-inkscape-font-specification:'Artifakt Element';letter-spacing:0.52916676px;stroke-width:0.26458332"
         y="27.113268"
         x="40.671734"
         id="tspan4871"
         sodipodi:role="line"><tspan
   id="tspan4869"
   style="font-style:normal;font-variant:normal;font-weight:bold;font-stretch:normal;font-family:'Artifakt Element';-inkscape-font-specification:'Artifakt Element Bold'">FXT</tspan>RACT</tspan></text>
    <g
       id="g68"
       style="font-style:normal;font-variant:normal;font-weight:bold;font-stretch:normal;font-size:10.58333302px;line-height:1.25;font-family:'Artifakt Element';-inkscape-font-specification:'Artifakt Element Bold';letter-spacing:0px;word-spacing:0px;fill:#000000;fill-opacity:1;stroke:none;stroke-width:0.26458332"
       aria-label="FXTRACT"
       transform="translate(0,-10.10519)">
      <path
         id="path54"
         style="font-style:normal;font-variant:normal;font-weight:bold;font-stretch:normal;font-family:'Artifakt Element';-inkscape-font-specification:'Artifakt Element Bold'"
         d="M 18.894847,42.420587 V 41.975735 H 17.54653 16.96868 v 3.210277 h 0.57785 v -1.366661 h 1.1557 v -0.444853 h -1.1557 v -0.953911 z"
         inkscape:connector-curvature="0" />
      <path
         sodipodi:nodetypes="cccccccccccccc"
         inkscape:connector-curvature="0"
         id="path56"
         style="font-style:normal;font-variant:normal;font-weight:bold;font-stretch:normal;font-family:'Artifakt Element';-inkscape-font-specification:'Artifakt Element Bold'"
         d="m 21.340435,43.434118 4.658977,-4.134354 -4.433322,2.135816 -0.578786,1.65458 h -0.0046 L 20.30396,41.975735 h -0.642056 l 0.953911,1.499658 -6.719652,3.617217 6.293144,-1.906598 0.788811,-1.329972 0.779639,1.329972 h 0.655814 z" />
      <path
         id="path58"
         style="font-style:normal;font-variant:normal;font-weight:bold;font-stretch:normal;font-family:'Artifakt Element';-inkscape-font-specification:'Artifakt Element Bold'"
         d="m 25.409004,41.975735 h -0.898877 -1.481314 v 0.444852 h 0.903464 v 2.765425 h 0.57785 v -2.765425 h 0.898877 z"
         inkscape:connector-curvature="0" />
      <path
         id="path60"
         style="font-style:normal;font-variant:normal;font-weight:normal;font-stretch:normal;font-size:4.58611107px;font-family:'Artifakt Element';-inkscape-font-specification:'Artifakt Element';letter-spacing:0.52916676px;stroke-width:0.26458332"
         d="m 28.354264,45.186012 -0.733778,-1.362075 q -0.02752,0.0046 -0.09172,0.0046 h -0.609953 v 1.357489 h -0.343958 v -3.210277 h 0.944739 q 0.499886,0 0.793397,0.224719 0.298097,0.220133 0.298097,0.600781 v 0.210961 q 0,0.275166 -0.174272,0.472369 -0.169686,0.197203 -0.472369,0.279753 l 0.770466,1.421694 z m -0.830086,-1.637241 q 0.348544,0 0.541161,-0.14217 0.197203,-0.142169 0.197203,-0.403578 v -0.192616 q 0,-0.261409 -0.201789,-0.408164 -0.201789,-0.146756 -0.545747,-0.146756 h -0.596195 v 1.293284 z"
         inkscape:connector-curvature="0" />
      <path
         id="path62"
         style="font-style:normal;font-variant:normal;font-weight:normal;font-stretch:normal;font-size:4.58611107px;font-family:'Artifakt Element';-inkscape-font-specification:'Artifakt Element';letter-spacing:0.52916676px;stroke-width:0.26458332"
         d="m 31.613313,44.195412 h -1.252008 l -0.311855,0.9906 h -0.353131 l 1.050219,-3.210277 h 0.47237 l 1.082322,3.210277 h -0.357717 z m -1.164872,-0.284339 h 1.07315 L 30.98043,42.227971 Z"
         inkscape:connector-curvature="0" />
      <path
         id="path64"
         style="font-style:normal;font-variant:normal;font-weight:normal;font-stretch:normal;font-size:4.58611107px;font-family:'Artifakt Element';-inkscape-font-specification:'Artifakt Element';letter-spacing:0.52916676px;stroke-width:0.26458332"
         d="m 34.49537,45.241046 q -0.564092,0 -0.875947,-0.325614 -0.311856,-0.325614 -0.311856,-0.871361 V 43.19564 q 0,-0.385233 0.14217,-0.669572 0.146755,-0.288925 0.417336,-0.444853 0.275167,-0.160514 0.651228,-0.160514 0.298097,0 0.509058,0.09172 0.215547,0.08714 0.403578,0.252237 l -0.183445,0.206375 q -0.155927,-0.128412 -0.325614,-0.197203 -0.1651,-0.07338 -0.394405,-0.07338 -0.417336,0 -0.646642,0.261408 -0.229305,0.261409 -0.229305,0.724606 v 0.84843 q 0,0.440267 0.215547,0.683331 0.220133,0.243064 0.632883,0.243064 0.233892,0 0.41275,-0.06879 0.178859,-0.06879 0.334786,-0.18803 l 0.151342,0.220133 q -0.169686,0.137583 -0.398992,0.229305 -0.224719,0.08714 -0.504472,0.08714 z"
         inkscape:connector-curvature="0" />
      <path
         id="path66"
         style="font-style:normal;font-variant:normal;font-weight:normal;font-stretch:normal;font-size:4.58611107px;font-family:'Artifakt Element';-inkscape-font-specification:'Artifakt Element';letter-spacing:0.52916676px;stroke-width:0.26458332"
         d="m 38.487408,42.260073 h -0.958497 v 2.925939 h -0.343959 v -2.925939 h -0.953911 v -0.284338 h 2.256367 z"
         inkscape:connector-curvature="0" />
      <path
         inkscape:connector-curvature="0"
         d="M 18.894847,32.288942 V 31.84409 H 17.54653 16.96868 v 3.210277 h 0.57785 v -1.366661 h 1.1557 v -0.444853 h -1.1557 v -0.953911 z"
         style="font-style:normal;font-variant:normal;font-weight:bold;font-stretch:normal;font-family:'Artifakt Element';-inkscape-font-specification:'Artifakt Element Bold'"
         id="path70" />
      <path
         d="m 21.340435,33.302473 4.658977,-4.134354 -4.433322,2.135816 -0.578786,1.65458 h -0.0046 l -0.517924,-0.893298 -3.858451,-3.09578 4.009486,4.374311 -6.719652,3.617217 6.293144,-1.906598 0.788811,-1.329972 0.940459,1.189255 4.555693,2.713833 z"
         style="font-style:normal;font-variant:normal;font-weight:bold;font-stretch:normal;font-family:'Artifakt Element';-inkscape-font-specification:'Artifakt Element Bold'"
         id="path72"
         inkscape:connector-curvature="0"
         sodipodi:nodetypes="cccccccccccccc" />
      <path
         inkscape:connector-curvature="0"
         d="m 25.409004,31.84409 h -0.898877 -1.481314 v 0.444852 h 0.903464 v 2.765425 h 0.57785 v -2.765425 h 0.898877 z"
         style="font-style:normal;font-variant:normal;font-weight:bold;font-stretch:normal;font-family:'Artifakt Element';-inkscape-font-specification:'Artifakt Element Bold'"
         id="path74" />
      <path
         inkscape:connector-curvature="0"
         d="m 28.354264,35.054367 -0.733778,-1.362075 q -0.02752,0.0046 -0.09172,0.0046 h -0.609953 v 1.357489 h -0.343958 v -3.210277 h 0.944739 q 0.499886,0 0.793397,0.224719 0.298097,0.220133 0.298097,0.600781 v 0.210961 q 0,0.275166 -0.174272,0.472369 -0.169686,0.197203 -0.472369,0.279753 l 0.770466,1.421694 z m -0.830086,-1.637241 q 0.348544,0 0.541161,-0.14217 0.197203,-0.142169 0.197203,-0.403578 v -0.192616 q 0,-0.261409 -0.201789,-0.408164 -0.201789,-0.146756 -0.545747,-0.146756 h -0.596195 v 1.293284 z"
         style="font-style:normal;font-variant:normal;font-weight:normal;font-stretch:normal;font-size:4.58611107px;font-family:'Artifakt Element';-inkscape-font-specification:'Artifakt Element';letter-spacing:0.52916676px;stroke-width:0.26458332"
         id="path76" />
      <path
         inkscape:connector-curvature="0"
         d="m 31.613313,34.063767 h -1.252008 l -0.311855,0.9906 h -0.353131 l 1.050219,-3.210277 h 0.47237 l 1.082322,3.210277 h -0.357717 z m -1.164872,-0.284339 h 1.07315 L 30.98043,32.096326 Z"
         style="font-style:normal;font-variant:normal;font-weight:normal;font-stretch:normal;font-size:4.58611107px;font-family:'Artifakt Element';-inkscape-font-specification:'Artifakt Element';letter-spacing:0.52916676px;stroke-width:0.26458332"
         id="path78" />
      <path
         inkscape:connector-curvature="0"
         d="m 34.49537,35.109401 q -0.564092,0 -0.875947,-0.325614 -0.311856,-0.325614 -0.311856,-0.871361 v -0.848431 q 0,-0.385233 0.14217,-0.669572 0.146755,-0.288925 0.417336,-0.444853 0.275167,-0.160514 0.651228,-0.160514 0.298097,0 0.509058,0.09172 0.215547,0.08714 0.403578,0.252237 l -0.183445,0.206375 q -0.155927,-0.128412 -0.325614,-0.197203 -0.1651,-0.07338 -0.394405,-0.07338 -0.417336,0 -0.646642,0.261408 -0.229305,0.261409 -0.229305,0.724606 v 0.84843 q 0,0.440267 0.215547,0.683331 0.220133,0.243064 0.632883,0.243064 0.233892,0 0.41275,-0.06879 0.178859,-0.06879 0.334786,-0.18803 l 0.151342,0.220133 q -0.169686,0.137583 -0.398992,0.229305 -0.224719,0.08714 -0.504472,0.08714 z"
         style="font-style:normal;font-variant:normal;font-weight:normal;font-stretch:normal;font-size:4.58611107px;font-family:'Artifakt Element';-inkscape-font-specification:'Artifakt Element';letter-spacing:0.52916676px;stroke-width:0.26458332"
         id="path80" />
      <path
         inkscape:connector-curvature="0"
         d="m 38.487408,32.128428 h -0.958497 v 2.925939 H 37.184952 V 32.128428 H 36.231041 V 31.84409 h 2.256367 z"
         style="font-style:normal;font-variant:normal;font-weight:normal;font-stretch:normal;font-size:4.58611107px;font-family:'Artifakt Element';-inkscape-font-specification:'Artifakt Element';letter-spacing:0.52916676px;stroke-width:0.26458332"
         id="path82" />
      <path
         inkscape:connector-curvature="0"
         d="M 18.894847,42.420587 V 41.975735 H 17.54653 16.96868 v 3.210277 h 0.57785 v -1.366661 h 1.1557 v -0.444853 h -1.1557 v -0.953911 z"
         style="font-style:normal;font-variant:normal;font-weight:bold;font-stretch:normal;font-family:'Artifakt Element';-inkscape-font-specification:'Artifakt Element Bold'"
         id="path99" />
      <path
         d="m 21.340435,43.434118 4.658977,-4.134354 -4.433322,2.135816 -0.578786,1.65458 h -0.0046 L 20.30396,41.975735 h -0.642056 l 0.953911,1.499658 -6.719652,3.617217 6.293144,-1.906598 0.788811,-1.329972 0.779639,1.329972 h 0.655814 z"
         style="font-style:normal;font-variant:normal;font-weight:bold;font-stretch:normal;font-family:'Artifakt Element';-inkscape-font-specification:'Artifakt Element Bold'"
         id="path101"
         inkscape:connector-curvature="0"
         sodipodi:nodetypes="cccccccccccccc" />
      <path
         inkscape:connector-curvature="0"
         d="m 25.409004,41.975735 h -0.898877 -1.481314 v 0.444852 h 0.903464 v 2.765425 h 0.57785 v -2.765425 h 0.898877 z"
         style="font-style:normal;font-variant:normal;font-weight:bold;font-stretch:normal;font-family:'Artifakt Element';-inkscape-font-specification:'Artifakt Element Bold'"
         id="path103" />
      <path
         inkscape:connector-curvature="0"
         d="m 28.354264,45.186012 -0.733778,-1.362075 q -0.02752,0.0046 -0.09172,0.0046 h -0.609953 v 1.357489 h -0.343958 v -3.210277 h 0.944739 q 0.499886,0 0.793397,0.224719 0.298097,0.220133 0.298097,0.600781 v 0.210961 q 0,0.275166 -0.174272,0.472369 -0.169686,0.197203 -0.472369,0.279753 l 0.770466,1.421694 z m -0.830086,-1.637241 q 0.348544,0 0.541161,-0.14217 0.197203,-0.142169 0.197203,-0.403578 v -0.192616 q 0,-0.261409 -0.201789,-0.408164 -0.201789,-0.146756 -0.545747,-0.146756 h -0.596195 v 1.293284 z"
         style="font-style:normal;font-variant:normal;font-weight:normal;font-stretch:normal;font-size:4.58611107px;font-family:'Artifakt Element';-inkscape-font-specification:'Artifakt Element';letter-spacing:0.52916676px;stroke-width:0.26458332"
         id="path105" />
      <path
         inkscape:connector-curvature="0"
         d="m 31.613313,44.195412 h -1.252008 l -0.311855,0.9906 h -0.353131 l 1.050219,-3.210277 h 0.47237 l 1.082322,3.210277 h -0.357717 z m -1.164872,-0.284339 h 1.07315 L 30.98043,42.227971 Z"
         style="font-style:normal;font-variant:normal;font-weight:normal;font-stretch:normal;font-size:4.58611107px;font-family:'Artifakt Element';-inkscape-font-specification:'Artifakt Element';letter-spacing:0.52916676px;stroke-width:0.26458332"
         id="path107" />
      <path
         inkscape:connector-curvature="0"
         d="m 34.49537,45.241046 q -0.564092,0 -0.875947,-0.325614 -0.311856,-0.325614 -0.311856,-0.871361 V 43.19564 q 0,-0.385233 0.14217,-0.669572 0.146755,-0.288925 0.417336,-0.444853 0.275167,-0.160514 0.651228,-0.160514 0.298097,0 0.509058,0.09172 0.215547,0.08714 0.403578,0.252237 l -0.183445,0.206375 q -0.155927,-0.128412 -0.325614,-0.197203 -0.1651,-0.07338 -0.394405,-0.07338 -0.417336,0 -0.646642,0.261408 -0.229305,0.261409 -0.229305,0.724606 v 0.84843 q 0,0.440267 0.215547,0.683331 0.220133,0.243064 0.632883,0.243064 0.233892,0 0.41275,-0.06879 0.178859,-0.06879 0.334786,-0.18803 l 0.151342,0.220133 q -0.169686,0.137583 -0.398992,0.229305 -0.224719,0.08714 -0.504472,0.08714 z"
         style="font-style:normal;font-variant:normal;font-weight:normal;font-stretch:normal;font-size:4.58611107px;font-family:'Artifakt Element';-inkscape-font-specification:'Artifakt Element';letter-spacing:0.52916676px;stroke-width:0.26458332"
         id="path109" />
      <path
         inkscape:connector-curvature="0"
         d="m 38.487408,42.260073 h -0.958497 v 2.925939 h -0.343959 v -2.925939 h -0.953911 v -0.284338 h 2.256367 z"
         style="font-style:normal;font-variant:normal;font-weight:normal;font-stretch:normal;font-size:4.58611107px;font-family:'Artifakt Element';-inkscape-font-specification:'Artifakt Element';letter-spacing:0.52916676px;stroke-width:0.26458332"
         id="path111" />
      <path
         inkscape:connector-curvature="0"
         d="m 8.4549237,22.379469 v -0.444852 h -1.34831 -0.57785 v 3.210277 h 0.57785 v -1.366661 h 1.1557 V 23.33338 h -1.1557 v -0.953911 z"
         style="font-style:normal;font-variant:normal;font-weight:bold;font-stretch:normal;font-size:10.58333302px;line-height:1.25;font-family:'Artifakt Element';-inkscape-font-specification:'Artifakt Element Bold';letter-spacing:0px;word-spacing:0px;fill:#000000;fill-opacity:1;stroke:none;stroke-width:0.26458332"
         id="path99-3" />
      <path
         d="m 10.900514,23.393 1.19062,-1.483332 -2.2270902,0.02495 0.6833402,1.114425 h -0.005 l -0.6787403,-1.114422 -0.969,-0.01422 1.2808503,1.513873 -1.2612503,1.726676 2.4031903,-0.01606 -0.77963,-1.329972 0.77963,1.329972 h 0.65582 z"
         style="font-style:normal;font-variant:normal;font-weight:bold;font-stretch:normal;font-size:10.58333302px;line-height:1.25;font-family:'Artifakt Element';-inkscape-font-specification:'Artifakt Element Bold';letter-spacing:0px;word-spacing:0px;fill:#000000;fill-opacity:1;stroke:none;stroke-width:0.26458332"
         id="path101-6"
         inkscape:connector-curvature="0"
         sodipodi:nodetypes="cccccccccccccc" />
      <path
         inkscape:connector-curvature="0"
         d="m 14.969084,21.934617 h -0.89888 -1.48131 v 0.444852 h 0.90346 v 2.765425 h 0.57785 v -2.765425 h 0.89888 z"
         style="font-style:normal;font-variant:normal;font-weight:bold;font-stretch:normal;font-size:10.58333302px;line-height:1.25;font-family:'Artifakt Element';-inkscape-font-specification:'Artifakt Element Bold';letter-spacing:0px;word-spacing:0px;fill:#000000;fill-opacity:1;stroke:none;stroke-width:0.26458332"
         id="path103-7" />
      <path
         inkscape:connector-curvature="0"
         d="m 17.914344,25.144894 -0.73378,-1.362075 q -0.0275,0.0046 -0.0917,0.0046 h -0.60995 v 1.357489 h -0.34396 v -3.210277 h 0.94474 q 0.49989,0 0.7934,0.224719 0.29809,0.220133 0.29809,0.600781 v 0.210961 q 0,0.275166 -0.17427,0.472369 -0.16968,0.197203 -0.47237,0.279753 l 0.77047,1.421694 z m -0.83009,-1.637241 q 0.34855,0 0.54117,-0.14217 0.1972,-0.142169 0.1972,-0.403578 v -0.192616 q 0,-0.261409 -0.20179,-0.408164 -0.20179,-0.146756 -0.54575,-0.146756 h -0.59619 v 1.293284 z"
         style="font-style:normal;font-variant:normal;font-weight:normal;font-stretch:normal;font-size:4.58611107px;line-height:1.25;font-family:'Artifakt Element';-inkscape-font-specification:'Artifakt Element';letter-spacing:0.52916676px;word-spacing:0px;fill:#000000;fill-opacity:1;stroke:none;stroke-width:0.26458332"
         id="path105-5" />
      <path
         inkscape:connector-curvature="0"
         d="m 21.173394,24.154294 h -1.25201 l -0.31185,0.9906 h -0.35313 l 1.05021,-3.210277 h 0.47237 l 1.08233,3.210277 h -0.35772 z m -1.16487,-0.284339 h 1.07315 l -0.54116,-1.683102 z"
         style="font-style:normal;font-variant:normal;font-weight:normal;font-stretch:normal;font-size:4.58611107px;line-height:1.25;font-family:'Artifakt Element';-inkscape-font-specification:'Artifakt Element';letter-spacing:0.52916676px;word-spacing:0px;fill:#000000;fill-opacity:1;stroke:none;stroke-width:0.26458332"
         id="path107-3" />
      <path
         inkscape:connector-curvature="0"
         d="m 24.055454,25.199928 q -0.5641,0 -0.87595,-0.325614 -0.31186,-0.325614 -0.31186,-0.871361 v -0.848431 q 0,-0.385233 0.14217,-0.669572 0.14676,-0.288925 0.41734,-0.444853 0.27517,-0.160514 0.65123,-0.160514 0.29809,0 0.50906,0.09172 0.21554,0.08714 0.40357,0.252237 l -0.18344,0.206375 q -0.15593,-0.128412 -0.32562,-0.197203 -0.1651,-0.07338 -0.3944,-0.07338 -0.41734,0 -0.64664,0.261408 -0.22931,0.261409 -0.22931,0.724606 v 0.84843 q 0,0.440267 0.21555,0.683331 0.22013,0.243064 0.63288,0.243064 0.23389,0 0.41275,-0.06879 0.17886,-0.06879 0.33479,-0.18803 l 0.15134,0.220133 q -0.16969,0.137583 -0.39899,0.229305 -0.22472,0.08714 -0.50447,0.08714 z"
         style="font-style:normal;font-variant:normal;font-weight:normal;font-stretch:normal;font-size:4.58611107px;line-height:1.25;font-family:'Artifakt Element';-inkscape-font-specification:'Artifakt Element';letter-spacing:0.52916676px;word-spacing:0px;fill:#000000;fill-opacity:1;stroke:none;stroke-width:0.26458332"
         id="path109-5" />
      <path
         inkscape:connector-curvature="0"
         d="m 28.047484,22.218955 h -0.95849 v 2.925939 h -0.34396 v -2.925939 h -0.95391 v -0.284338 h 2.25636 z"
         style="font-style:normal;font-variant:normal;font-weight:normal;font-stretch:normal;font-size:4.58611107px;line-height:1.25;font-family:'Artifakt Element';-inkscape-font-specification:'Artifakt Element';letter-spacing:0.52916676px;word-spacing:0px;fill:#000000;fill-opacity:1;stroke:none;stroke-width:0.26458332"
         id="path111-6" />
      <text
         xml:space="preserve"
         style="font-style:normal;font-weight:normal;font-size:10.58333302px;line-height:1.25;font-family:sans-serif;letter-spacing:0px;word-spacing:0px;fill:#000000;fill-opacity:1;stroke:none;stroke-width:0.07000434"
         x="122.54465"
         y="114.20189"
         id="text85"><tspan
           sodipodi:role="line"
           id="tspan83"
           x="122.54465"
           y="114.20189"
           style="font-style:normal;font-variant:normal;font-weight:300;font-stretch:normal;line-height:0;font-family:Overpass;-inkscape-font-specification:'Overpass Light';letter-spacing:2.07962513px;stroke-width:0.07000434">fxtract</tspan></text>
      <text
         xml:space="preserve"
         style="font-style:normal;font-weight:normal;font-size:10.58333302px;line-height:1.25;font-family:sans-serif;letter-spacing:0px;word-spacing:0px;fill:#000000;fill-opacity:1;stroke:none;stroke-width:0.07000434"
         x="111.93054"
         y="23.0975"
         id="text89"><tspan
           sodipodi:role="line"
           id="tspan87"
           x="111.93054"
           y="23.0975"
           style="stroke-width:0.07000434;font-size:22.57777778px">x</tspan></text>
      <text
         xml:space="preserve"
         style="font-style:normal;font-weight:normal;font-size:10.58333302px;line-height:1.25;font-family:sans-serif;letter-spacing:0px;word-spacing:0px;fill:#000000;fill-opacity:1;stroke:none;stroke-width:0.07000434"
         x="60.950687"
         y="26.957174"
         id="text93"><tspan
           sodipodi:role="line"
           id="tspan91"
           x="60.950687"
           y="26.957174"
           style="stroke-width:0.07000434">f</tspan></text>
      <text
         xml:space="preserve"
         style="font-style:normal;font-weight:normal;font-size:10.58333302px;line-height:1.25;font-family:sans-serif;letter-spacing:0px;word-spacing:0px;fill:#000000;fill-opacity:1;stroke:none;stroke-width:0.07000434"
         x="127.04761"
         y="71.986702"
         id="text97"><tspan
           sodipodi:role="line"
           id="tspan95"
           x="127.04761"
           y="71.986702"
           style="stroke-width:0.07000434">Fxtract</tspan></text>
      <g
         aria-label="fxtract"
         style="font-style:normal;font-variant:normal;font-weight:normal;font-stretch:normal;font-size:10.58333302px;line-height:1.25;font-family:sans-serif;-inkscape-font-specification:'Artifakt Element Bold';letter-spacing:0px;word-spacing:0px;fill:#000000;fill-opacity:1;stroke:none;stroke-width:0.07000434"
         id="text85-0">
        <path
           d="m 117.2845,32.920532 h 0.98379 v -0.503893 h -0.98379 v -0.607871 c 0,-0.223952 0.008,-0.479898 0.39991,-0.479898 0.23195,0 0.41591,0.07199 0.58388,0.159967 v -0.487896 c -0.17596,-0.09598 -0.39192,-0.191959 -0.69585,-0.191959 -0.42392,0 -0.84782,0.239949 -0.84782,0.911805 v 0.695852 h -0.65587 v 0.503893 h 0.65587 v 3.583237 h 0.55988 z"
           style="font-style:normal;font-variant:normal;font-weight:300;font-stretch:normal;line-height:0;font-family:Overpass;-inkscape-font-specification:'Overpass Light';letter-spacing:2.07962513px;stroke-width:0.0529054"
           id="path117"
           inkscape:connector-curvature="0" />
        <path
           d="m 121.3921,36.503769 h 0.80433 l 1.09008,-1.672167 c 0.11642,-0.179916 0.22225,-0.34925 0.33867,-0.53975 l 0.33867,0.53975 1.09008,1.672167 h 0.80433 l -1.83091,-2.804583 1.70391,-2.6035 h -0.80433 l -0.9525,1.4605 c -0.127,0.1905 -0.23283,0.359833 -0.34925,0.550333 -0.11642,-0.1905 -0.22225,-0.359833 -0.34925,-0.550333 l -0.9525,-1.4605 h -0.80433 l 1.70391,2.6035 z"
           style="font-style:normal;font-variant:normal;font-weight:300;font-stretch:normal;line-height:0;font-family:Overpass;-inkscape-font-specification:'Overpass Light';letter-spacing:2.07962513px;stroke-width:0.07000434"
           id="path119" />
        <path
           d="m 130.43782,36.630769 c 0.29913,0 0.51389,-0.06903 0.71332,-0.176412 l 0.0614,-0.559914 c -0.14573,0.09971 -0.32982,0.230102 -0.5906,0.230102 -0.37583,0 -0.42185,-0.283792 -0.42185,-0.621276 v -2.40073 h 0.99711 v -0.483214 h -0.99711 v -1.618384 l -0.53691,0.268452 v 1.349932 h -0.66729 v 0.483214 h 0.66729 v 2.630832 c 0,0.513894 0.21477,0.897398 0.77468,0.897398 z"
           style="font-style:normal;font-variant:normal;font-weight:300;font-stretch:normal;line-height:0;font-family:Overpass;-inkscape-font-specification:'Overpass Light';letter-spacing:2.07962513px;stroke-width:0.05073429"
           id="path121"
           inkscape:connector-curvature="0" />
        <path
           d="m 135.19624,36.503769 h 0.74083 v -3.058583 c 0,-1.3335 0.8255,-1.735667 1.31233,-1.735667 0.34925,0 0.56092,0.116417 0.6985,0.201083 l 0.11642,-0.719666 c -0.16933,-0.137584 -0.42333,-0.22225 -0.67733,-0.22225 -0.49742,0 -1.05834,0.306916 -1.44992,0.889 v -0.762 h -0.74083 z"
           style="font-style:normal;font-variant:normal;font-weight:300;font-stretch:normal;line-height:0;font-family:Overpass;-inkscape-font-specification:'Overpass Light';letter-spacing:2.07962513px;stroke-width:0.07000434"
           id="path123" />
        <path
           d="m 144.21142,36.503769 h 0.68792 v -3.661833 c 0,-1.534584 -1.02659,-1.87325 -1.79917,-1.87325 -0.74083,0 -1.4605,0.3175 -1.89442,0.592666 l 0.21167,0.635 c 0.40217,-0.275166 1.06892,-0.582083 1.60867,-0.582083 0.60325,0 1.18533,0.232833 1.18533,1.322917 v 0.455083 c -0.52917,-0.28575 -1.00542,-0.381 -1.4605,-0.381 -1.02658,0 -1.9685,0.53975 -1.9685,1.788583 0,1.217084 0.75142,1.830917 1.8415,1.830917 0.58208,0 1.15358,-0.264583 1.5875,-0.656167 z M 142.698,35.985186 c -0.78316,0 -1.22766,-0.47625 -1.22766,-1.185334 0,-0.783166 0.62441,-1.143 1.35466,-1.143 0.46567,0 1.03717,0.211667 1.38642,0.4445 v 1.04775 c -0.32808,0.402167 -0.85725,0.836084 -1.51342,0.836084 z"
           style="font-style:normal;font-variant:normal;font-weight:300;font-stretch:normal;line-height:0;font-family:Overpass;-inkscape-font-specification:'Overpass Light';letter-spacing:2.07962513px;stroke-width:0.07000434"
           id="path125" />
        <path
           d="m 150.44533,36.630769 c 0.92075,0 1.64042,-0.47625 1.89442,-1.23825 l -0.66675,-0.254 c -0.17992,0.508 -0.61384,0.8255 -1.19592,0.8255 -0.9525,0 -1.397,-0.79375 -1.397,-2.159 0,-1.3335 0.41275,-2.169583 1.41817,-2.169583 0.59266,0 0.92075,0.3175 1.09008,0.73025 l 0.67733,-0.264584 c -0.29633,-0.73025 -0.93133,-1.132416 -1.73566,-1.132416 -1.38642,0 -2.2225,1.058333 -2.2225,2.836333 0,1.799167 0.83608,2.82575 2.13783,2.82575 z"
           style="font-style:normal;font-variant:normal;font-weight:300;font-stretch:normal;line-height:0;font-family:Overpass;-inkscape-font-specification:'Overpass Light';letter-spacing:2.07962513px;stroke-width:0.07000434"
           id="path127" />
        <path
           d="m 156.96709,36.630769 c 0.29914,0 0.5139,-0.06903 0.71332,-0.176412 l 0.0614,-0.559914 c -0.14573,0.09971 -0.32981,0.230102 -0.59059,0.230102 -0.37583,0 -0.42186,-0.283792 -0.42186,-0.621276 v -2.40073 h 0.99711 v -0.483214 h -0.99711 v -1.618384 l -0.5369,0.268452 v 1.349932 h -0.66729 v 0.483214 h 0.66729 v 2.630832 c 0,0.513894 0.21476,0.897398 0.77467,0.897398 z"
           style="font-style:normal;font-variant:normal;font-weight:300;font-stretch:normal;line-height:0;font-family:Overpass;-inkscape-font-specification:'Overpass Light';letter-spacing:2.07962513px;stroke-width:0.05073429"
           id="path129"
           inkscape:connector-curvature="0" />
      </g>
      <rect
         id="rect181"
         width="16.242794"
         height="14.040383"
         x="57.734283"
         y="-3.4377575"
         style="fill:#808080;stroke-width:0.05991897"
         ry="2.6153653" />
      <text
         xml:space="preserve"
         style="font-style:normal;font-weight:normal;font-size:10.58333302px;line-height:1.25;font-family:sans-serif;letter-spacing:0px;word-spacing:0px;fill:#000000;fill-opacity:1;stroke:none;stroke-width:0.07000434"
         x="62.719688"
         y="7.1763444"
         id="text185"><tspan
           sodipodi:role="line"
           id="tspan183"
           x="62.719688"
           y="7.1763444"
           style="stroke-width:0.07000434">F</tspan></text>
    </g>
  </g>
</svg>
