<?xml version="1.0" encoding="UTF-8" standalone="no"?>
<!-- Created with Inkscape (http://www.inkscape.org/) -->

<svg
   xmlns:dc="http://purl.org/dc/elements/1.1/"
   xmlns:cc="http://creativecommons.org/ns#"
   xmlns:rdf="http://www.w3.org/1999/02/22-rdf-syntax-ns#"
   xmlns:svg="http://www.w3.org/2000/svg"
   xmlns="http://www.w3.org/2000/svg"
   xmlns:sodipodi="http://sodipodi.sourceforge.net/DTD/sodipodi-0.dtd"
   xmlns:inkscape="http://www.inkscape.org/namespaces/inkscape"
   width="142.66573mm"
   height="99.645348mm"
   viewBox="0 0 142.66573 99.645348"
   version="1.1"
   id="svg4180"
   inkscape:version="0.92.3 (2405546, 2018-03-11)"
   sodipodi:docname="web_hosting_img.svg">
  <defs
     id="defs4174" />
  <sodipodi:namedview
     id="base"
     pagecolor="#ffffff"
     bordercolor="#666666"
     borderopacity="1.0"
     inkscape:pageopacity="0.0"
     inkscape:pageshadow="2"
     inkscape:zoom="0.98994949"
     inkscape:cx="408.83497"
     inkscape:cy="160.09267"
     inkscape:document-units="mm"
     inkscape:current-layer="layer1"
     showgrid="false"
     fit-margin-top="0"
     fit-margin-left="0"
     fit-margin-right="0"
     fit-margin-bottom="0"
     inkscape:window-width="1366"
     inkscape:window-height="704"
     inkscape:window-x="0"
     inkscape:window-y="27"
     inkscape:window-maximized="1" />
  <metadata
     id="metadata4177">
    <rdf:RDF>
      <cc:Work
         rdf:about="">
        <dc:format>image/svg+xml</dc:format>
        <dc:type
           rdf:resource="http://purl.org/dc/dcmitype/StillImage" />
        <dc:title />
      </cc:Work>
    </rdf:RDF>
  </metadata>
  <g
     inkscape:label="Layer 1"
     inkscape:groupmode="layer"
     id="layer1"
     transform="translate(148.44001,-114.12971)">
    <g
       id="g1046">
      <path
         id="path3508"
         d="m -143.33755,166.2005 a 0.97223526,0.97223526 0 0 1 -0.54174,-1.17502 0.46725416,0.46725416 0 0 0 0.0212,-0.10781 v 0 a 0.48751331,0.48751331 0 0 0 -0.87588,-0.32311 v 0 a 0.46728062,0.46728062 0 0 0 -0.0539,0.0957 0.97224055,0.97224055 0 0 1 -1.17501,0.54174 0.46725416,0.46725416 0 0 0 -0.10784,-0.0212 v 0 a 0.48751331,0.48751331 0 0 0 -0.32311,0.87588 v 0 a 0.46715891,0.46715891 0 0 0 0.0957,0.054 0.97223526,0.97223526 0 0 1 0.54174,1.17501 0.46728326,0.46728326 0 0 0 -0.0212,0.10784 v 0 a 0.48751331,0.48751331 0 0 0 0.8759,0.32311 v 0 a 0.46735206,0.46735206 0 0 0 0.054,-0.0957 0.97223526,0.97223526 0 0 1 1.17502,-0.54174 0.46725416,0.46725416 0 0 0 0.10781,0.0212 v 0 a 0.48751331,0.48751331 0 0 0 0.32311,-0.8759 v 0 a 0.46728062,0.46728062 0 0 0 -0.0957,-0.0539 z"
         inkscape:connector-curvature="0"
         style="opacity:0.5;fill:#4d8af0;stroke-width:0.26458332" />
      <circle
         id="circle3512"
         r="1.5875"
         cy="172.98979"
         cx="-120.37828"
         style="opacity:0.5;fill:#f55f44;stroke-width:0.26458332" />
      <circle
         id="circle3514"
         r="1.5875"
         cy="162.98343"
         cx="-12.114607"
         style="opacity:0.5;fill:#f55f44;stroke-width:0.26458332" />
      <path
         id="path3520"
         d="m -145.18964,115.92966 a 0.97223526,0.97223526 0 0 1 -0.54173,-1.17501 0.46725416,0.46725416 0 0 0 0.0212,-0.10782 v 0 a 0.48751331,0.48751331 0 0 0 -0.87588,-0.32311 v 0 a 0.46728062,0.46728062 0 0 0 -0.0539,0.0957 0.97224055,0.97224055 0 0 1 -1.17501,0.54173 0.46725416,0.46725416 0 0 0 -0.10785,-0.0212 v 0 a 0.48751331,0.48751331 0 0 0 -0.32311,0.87587 v 0 a 0.46715891,0.46715891 0 0 0 0.0957,0.054 0.97223526,0.97223526 0 0 1 0.54173,1.17502 0.46728326,0.46728326 0 0 0 -0.0212,0.10784 v 0 a 0.48751331,0.48751331 0 0 0 0.8759,0.32311 v 0 a 0.46735206,0.46735206 0 0 0 0.054,-0.0957 0.97223526,0.97223526 0 0 1 1.17501,-0.54173 0.46725416,0.46725416 0 0 0 0.10782,0.0212 v 0 a 0.48751331,0.48751331 0 0 0 0.32311,-0.87591 v 0 a 0.46728062,0.46728062 0 0 0 -0.0957,-0.054 z"
         inkscape:connector-curvature="0"
         style="opacity:0.5;fill:#4d8af0;stroke-width:0.26458332" />
      <circle
         id="circle3522"
         r="1.5875"
         cy="142.66406"
         cx="-127.4336"
         style="opacity:0.5;fill:#47e6b1;stroke-width:0.26458332" />
      <circle
         id="circle3524"
         r="1.5875"
         cy="122.50218"
         cx="-11.320856"
         style="opacity:0.5;fill:#47e6b1;stroke-width:0.26458332" />
      <rect
         style="fill:#47e6b1;stroke-width:0.26458332"
         x="-52.566483"
         y="121.21586"
         width="0.79374999"
         height="4.4979167"
         id="rect3538" />
      <rect
         style="fill:#47e6b1;stroke-width:0.26458332"
         x="123.06794"
         y="49.920647"
         width="0.79374999"
         height="4.4979167"
         transform="rotate(90)"
         id="rect3540" />
      <path
         id="path3341"
         d="m -6.0607599,213.49559 0.2864867,-0.006 a 66.441238,66.441238 0 0 0 -1.0169726,-9.4952 c -1.2388332,-6.71538 -3.2987982,-11.12571 -6.1226822,-13.10846 l -0.164505,0.23445 c 6.5966083,4.63163 7.0143216,22.19785 7.0176731,22.3748 z"
         inkscape:connector-curvature="0"
         style="fill:#f1f1f1;stroke-width:0.233882" />
      <path
         id="path3343"
         d="m -9.6418487,213.42704 0.2864868,-0.006 c -0.00615,-0.31726 -0.1852135,-7.79446 -3.1288331,-9.86114 l -0.164508,0.23445 c 2.8248637,1.98331 3.0054557,9.55605 3.0068543,9.63229 z"
         inkscape:connector-curvature="0"
         style="fill:#f1f1f1;stroke-width:0.233882" />
      <circle
         id="circle3345"
         r="1.432436"
         cy="189.71437"
         cx="-14.708243"
         style="fill:#f1f1f1;stroke-width:0.233882" />
      <circle
         id="circle3347"
         r="1.432436"
         cy="202.03331"
         cx="-13.998889"
         style="fill:#f1f1f1;stroke-width:0.233882" />
      <path
         id="path3349"
         d="m -8.9741577,192.00548 a 6.3627151,6.3627151 0 0 0 0.4324478,3.25745 5.7986081,5.7986081 0 0 0 0.9748786,-6.22687 6.3627853,6.3627853 0 0 0 -1.4073264,2.96942 z"
         inkscape:connector-curvature="0"
         style="fill:#f1f1f1;stroke-width:0.233882" />
      <path
         id="path3351"
         d="m -13.656389,196.18158 a 6.3627221,6.3627221 0 0 0 3.282967,0.14175 5.7986221,5.7986221 0 0 0 -5.961748,-2.04493 6.3627595,6.3627595 0 0 0 2.678781,1.90318 z"
         inkscape:connector-curvature="0"
         style="fill:#f1f1f1;stroke-width:0.233882" />
      <path
         id="path3353"
         d="m -13.709274,207.09116 a 4.4598161,4.4598161 0 0 0 2.301092,0.0994 4.0643474,4.0643474 0 0 0 -4.178697,-1.43334 4.4597507,4.4597507 0 0 0 1.877605,1.33397 z"
         inkscape:connector-curvature="0"
         style="fill:#f1f1f1;stroke-width:0.233882" />
      <path
         id="path3355"
         d="m -128.05628,213.49558 -0.41582,-0.008 a 96.436816,96.436816 0 0 1 1.4761,-13.78197 c 1.79812,-9.74714 4.78809,-16.14859 8.88686,-19.02648 l 0.23877,0.3403 c -9.57475,6.72265 -10.18104,32.21942 -10.18591,32.47626 z"
         inkscape:connector-curvature="0"
         style="fill:#f1f1f1;stroke-width:0.233882" />
      <path
         id="path3357"
         d="m -122.85845,213.39609 -0.41583,-0.008 c 0.009,-0.4605 0.26883,-11.3134 4.5414,-14.31311 l 0.23878,0.3403 c -4.1002,2.8787 -4.36232,13.87028 -4.36435,13.98093 z"
         inkscape:connector-curvature="0"
         style="fill:#f1f1f1;stroke-width:0.233882" />
      <circle
         id="circle3359"
         r="2.0791337"
         cy="178.97795"
         cx="-115.50475"
         style="fill:#f1f1f1;stroke-width:0.233882" />
      <circle
         id="circle3361"
         r="2.0791314"
         cy="196.85847"
         cx="-116.53436"
         style="fill:#f1f1f1;stroke-width:0.233882" />
      <path
         id="path3363"
         d="m -123.82758,182.30343 a 9.2352981,9.2352981 0 0 1 -0.62767,4.72807 8.4164773,8.4164773 0 0 1 -1.415,-9.03808 9.2353519,9.2353519 0 0 1 2.04267,4.31001 z"
         inkscape:connector-curvature="0"
         style="fill:#f1f1f1;stroke-width:0.233882" />
      <path
         id="path3365"
         d="m -117.03149,188.36489 a 9.2352794,9.2352794 0 0 1 -4.76511,0.20575 8.416496,8.416496 0 0 1 8.65327,-2.96815 9.2353309,9.2353309 0 0 1 -3.88816,2.7624 z"
         inkscape:connector-curvature="0"
         style="fill:#f1f1f1;stroke-width:0.233882" />
      <path
         id="path3367"
         d="m -116.95472,204.19978 a 6.4732781,6.4732781 0 0 1 -3.33996,0.14423 5.8992709,5.8992709 0 0 1 6.06524,-2.08044 6.4732126,6.4732126 0 0 1 -2.72528,1.93621 z"
         inkscape:connector-curvature="0"
         style="fill:#f1f1f1;stroke-width:0.233882" />
      <path
         id="path3393"
         d="m -28.097771,168.3854 h -53.061158 a 1.6000849,1.6000849 0 0 1 -1.598228,-1.59823 v -17.90016 a 1.6000849,1.6000849 0 0 1 1.598228,-1.59823 h 53.061158 a 1.6000592,1.6000592 0 0 1 1.598228,1.59823 v 17.90016 a 1.6000592,1.6000592 0 0 1 -1.598228,1.59823 z"
         inkscape:connector-curvature="0"
         style="fill:#3a8de5;fill-opacity:1;stroke-width:0.233882" />
      <rect
         id="rect3395"
         height="1.5982279"
         width="14.064404"
         y="152.08348"
         x="-74.446381"
         style="fill:#ffffff;stroke-width:0.233882" />
      <circle
         id="circle3397"
         r="0.95893723"
         cy="153.0424"
         cx="-41.842537"
         style="fill:#ffffff;stroke-width:0.233882" />
      <circle
         id="circle3399"
         r="0.95893723"
         cy="153.0424"
         cx="-38.646072"
         style="fill:#ffffff;stroke-width:0.233882" />
      <circle
         id="circle3401"
         r="0.95893723"
         cy="153.0424"
         cx="-35.449623"
         style="fill:#ffffff;stroke-width:0.233882" />
      <path
         id="path3403"
         d="m -28.097771,191.08023 h -53.061158 a 1.6000849,1.6000849 0 0 1 -1.598228,-1.59823 v -17.90016 a 1.6000849,1.6000849 0 0 1 1.598228,-1.59823 h 53.061158 a 1.6000592,1.6000592 0 0 1 1.598228,1.59823 V 189.482 a 1.6000592,1.6000592 0 0 1 -1.598228,1.59823 z"
         inkscape:connector-curvature="0"
         style="fill:#3a8de5;fill-opacity:1;stroke-width:0.233882" />
      <rect
         id="rect3405"
         height="1.5982279"
         width="14.064404"
         y="174.77831"
         x="-74.446381"
         style="fill:#ffffff;stroke-width:0.233882" />
      <circle
         id="circle3407"
         r="0.95893723"
         cy="175.73724"
         cx="-41.842537"
         style="fill:#ffffff;stroke-width:0.233882" />
      <circle
         id="circle3409"
         r="0.95893723"
         cy="175.73724"
         cx="-38.646072"
         style="fill:#ffffff;stroke-width:0.233882" />
      <circle
         id="circle3411"
         r="0.95893723"
         cy="175.73724"
         cx="-35.449623"
         style="fill:#ffffff;stroke-width:0.233882" />
      <path
         id="path3413"
         d="m -28.097771,213.77506 h -53.061158 a 1.6000849,1.6000849 0 0 1 -1.598228,-1.59823 v -17.90016 a 1.6000849,1.6000849 0 0 1 1.598228,-1.59822 h 53.061158 a 1.6000592,1.6000592 0 0 1 1.598228,1.59822 v 17.90016 a 1.6000592,1.6000592 0 0 1 -1.598228,1.59823 z"
         inkscape:connector-curvature="0"
         style="fill:#3a8de5;fill-opacity:1;stroke-width:0.233882" />
      <rect
         id="rect3415"
         height="1.5982279"
         width="14.064404"
         y="197.47314"
         x="-74.446381"
         style="fill:#ffffff;stroke-width:0.233882" />
      <circle
         id="circle3417"
         r="0.95893723"
         cy="198.43207"
         cx="-41.842537"
         style="fill:#ffffff;stroke-width:0.233882" />
      <circle
         id="circle3419"
         r="0.95893723"
         cy="198.43207"
         cx="-38.646072"
         style="fill:#ffffff;stroke-width:0.233882" />
      <circle
         id="circle3421"
         r="0.95893723"
         cy="198.43207"
         cx="-35.449623"
         style="fill:#ffffff;stroke-width:0.233882" />
      <path
         id="path3427"
         d="m -91.986507,119.15911 v 45.6744 c 0,0 21.032352,-10.12414 20.846224,-36.74029 z"
         inkscape:connector-curvature="0"
         style="opacity:0.2;stroke-width:0.233882" />
      <path
         style="fill:#3f3d56;stroke-width:0.09350373"
         inkscape:connector-curvature="0"
         d="m -88.584568,115.8051 -25.218142,15.51886 c 0,0 0,32.00764 25.218142,49.46637 25.218159,-17.45872 25.218159,-49.46637 25.218159,-49.46637 z"
         id="path3638" />
      <polygon
         style="fill:#3ad29f"
         points="360.921,356.742 378.106,349.868 419.349,387.674 477.777,301.75 498.399,318.935 419.349,422.044 "
         id="polygon3636"
         transform="matrix(0.18865813,0,0,0.18865813,-169.64342,80.0229)" />
    </g>
  </g>
</svg>
